<?xml version="1.0" encoding="UTF-8" standalone="no"?>
<svg
   xmlns:dc="http://purl.org/dc/elements/1.1/"
   xmlns:cc="http://creativecommons.org/ns#"
   xmlns:rdf="http://www.w3.org/1999/02/22-rdf-syntax-ns#"
   xmlns:svg="http://www.w3.org/2000/svg"
   xmlns="http://www.w3.org/2000/svg"
   id="svg8"
   version="1.1"
   viewBox="0 0 169.33333 84.666665"
   height="84.666664mm"
   width="169.33333mm">
  <defs
     id="defs2" />
  <metadata
     id="metadata5">
    <rdf:RDF>
      <cc:Work
         rdf:about="">
        <dc:format>image/svg+xml</dc:format>
        <dc:type
           rdf:resource="http://purl.org/dc/dcmitype/StillImage" />
        <dc:title></dc:title>
      </cc:Work>
    </rdf:RDF>
  </metadata>
  <g
     transform="translate(1147.2578,-690.69537)"
     id="layer1">
    <rect
       style="fill:#ffffff;stroke-width:0.04639278"
       y="690.69537"
       x="-1147.2578"
       height="84.666664"
       width="169.33333"
       id="rect90" />
    <g
       transform="matrix(0.18254956,0,0,0.18254956,-941.78548,647.27987)"
       id="g140">
      <g
         id="text36"
         style="font-style:normal;font-variant:normal;font-weight:normal;font-stretch:normal;font-size:206.0954895px;line-height:1.25;font-family:'Calling Heart';-inkscape-font-specification:'Calling Heart';letter-spacing:0px;word-spacing:0px;fill:#000000;fill-opacity:1;stroke:none;stroke-width:5.15238714"
         aria-label="Gaiman">
        <path
           id="path142"
           style="font-style:normal;font-variant:normal;font-weight:normal;font-stretch:normal;font-family:'Calling Heart';-inkscape-font-specification:'Calling Heart';stroke-width:5.15238714"
           d="m -1007.0562,367.55131 h 0.5032 q 14.89362,0 25.25877,11.77401 5.93732,7.54744 5.93732,13.5854 0,17.6107 -11.27085,34.0138 -6.03795,7.74871 -8.85566,8.75504 -3.32088,1.61012 -7.74868,1.61012 -7.8494,0 -15.3968,-4.22657 -3.1196,-2.11328 -3.1196,-3.62277 v -0.20127 q 0.1006,-1.20759 7.1449,-7.7487 9.7614,-10.06326 11.774,-13.68603 3.32088,-4.42784 5.13226,-8.6544 2.61645,-6.23922 2.71708,-10.06326 -0.3019,-2.41518 -2.21391,-2.41518 h -1.2076 q -8.85563,0 -20.93153,13.18286 -8.1513,9.66073 -11.774,16.10121 -6.7424,10.56642 -12.5791,25.25878 -8.0506,20.62967 -8.0506,34.81887 0,12.88096 7.3462,17.0069 2.9183,1.40885 6.5411,1.40885 5.0316,0 10.2645,-2.31454 1.4088,-6.33986 4.3272,-12.98161 2.5158,-5.43415 8.4531,-15.79931 0.7045,-1.30822 0.7045,-1.91202 -0.2013,-0.40253 -0.3019,-0.40253 l -10.8684,2.91835 q -2.6164,0.40253 -4.4278,0.40253 -6.4405,0 -8.755,-4.931 -1.3082,-2.81771 -1.3082,-7.64807 0,-2.61645 3.0189,-3.52214 2.1133,0.10063 3.019,0.10063 8.2519,0 19.8246,-2.31455 11.2709,-2.21392 16.0006,-2.21392 h 1.10696 q 7.14491,0 9.25819,4.32721 0.20127,0.40253 0.3019,1.30822 0,2.21391 -4.6291,10.06325 -15.19555,28.78092 -15.19555,44.1777 v 1.71075 q 0,6.44049 3.2203,12.07591 v 0.10063 q -1.6101,1.81139 -8.0506,1.81139 h -0.6038 q -11.0696,0 -14.793,-6.03795 l -0.5032,-1.71076 q -9.1575,4.42784 -17.4094,4.42784 -22.2398,0 -29.7872,-25.56068 -2.4152,-9.05693 -2.4152,-19.62335 0,-24.25244 14.2898,-54.03968 4.2266,-8.3525 9.6607,-16.50374 3.8241,-6.03796 12.4785,-15.39678 17.51,-17.40944 33.9131,-17.40944 z" />
        <path
           id="path144"
           style="font-style:normal;font-variant:normal;font-weight:normal;font-stretch:normal;font-family:'Calling Heart';-inkscape-font-specification:'Calling Heart';stroke-width:5.15238714"
           d="m -942.75196,404.2822 h 1.20759 q 9.05693,0 18.11386,10.36515 1.40886,1.91202 3.52214,5.23289 3.62277,-11.06958 4.83037,-12.88096 1.50948,-2.51582 3.32087,-2.51582 h 0.90569 q 3.52214,0 10.56642,5.43416 2.61645,2.51582 2.61645,4.72973 v 0.6038 q 0,4.12593 -8.9563,24.55434 -8.6544,20.02588 -14.69235,38.03911 -1.40886,4.72973 -1.91202,7.24555 v 0.50316 q 0,0.50316 0.50316,0.80506 h 0.3019 q 3.52214,0 21.0322,-21.23347 19.52272,-25.25878 24.75561,-36.42899 2.31455,-3.7234 3.82404,-4.0253 h 0.6038 q 0.70443,0.50316 0.70443,1.50949 v 0.80506 q 0,6.23922 -17.30881,35.62392 -7.64807,12.57907 -16.50374,23.95055 -13.38413,16.60438 -20.32777,16.60438 h -0.70443 q -0.20127,0 -0.40253,0.10063 -0.10063,-0.10063 -0.3019,-0.10063 h -0.40253 q -7.54744,0 -12.9816,-6.94365 -3.01898,-4.52846 -3.01898,-8.9563 l 0.20127,-1.91202 q -3.32088,4.6291 -9.5601,10.86832 -7.64807,7.04428 -14.89361,7.04428 h -1.50949 q -11.67338,0 -15.79932,-10.96895 -1.20759,-4.22657 -1.20759,-8.75503 v -0.20127 q 0,-14.39045 11.17022,-43.77516 4.52846,-10.96895 10.96895,-20.42841 10.96895,-14.89362 21.3341,-14.89362 z m -18.71766,70.94595 q 0,3.32088 1.61013,4.42784 l 0.80506,0.20126 q 2.21391,0 7.34617,-5.63542 6.44049,-6.64175 11.06958,-13.2835 13.78667,-20.12651 13.78667,-32.70558 v -1.10696 q 0,-5.23289 -4.12594,-7.24555 -0.70443,-0.10063 -1.30822,-0.10063 h -0.40253 q -4.931,0 -12.07591,11.27085 -6.74238,11.67338 -12.17654,26.36573 -4.0253,12.17654 -4.0253,14.79299 -0.3019,0.80506 -0.50317,3.01897 z" />
        <path
           id="path146"
           style="font-style:normal;font-variant:normal;font-weight:normal;font-stretch:normal;font-family:'Calling Heart';-inkscape-font-specification:'Calling Heart';stroke-width:5.15238714"
           d="m -855.30226,376.10508 q 4.22656,0 11.67337,6.13859 2.01266,2.21391 2.01266,4.42783 v 0.20126 q 0,3.42151 -3.22025,10.76769 -1.61012,2.31455 -3.7234,2.31455 -2.11329,0 -9.96263,-4.02531 -4.93099,-3.52213 -4.93099,-6.54111 0,-0.80506 4.42783,-10.26452 1.20759,-3.01898 3.62277,-3.01898 z m -12.27718,27.97585 q 4.42784,0 11.67338,6.03796 2.11329,2.11328 2.11329,4.62909 0,4.02531 -8.9563,24.35308 -9.66073,22.64233 -14.89362,38.44164 -1.91202,6.74239 -1.91202,7.44681 0,1.10696 0.90569,1.10696 4.6291,-1.30822 19.42209,-19.42208 19.72398,-24.75561 25.86257,-37.63658 2.61644,-4.42783 4.42783,-4.72973 h 0.10063 q 1.20759,0 1.20759,2.11328 0,5.93732 -15.49741,32.60495 -26.76826,43.8758 -39.2467,43.8758 -9.35883,0 -14.08856,-8.85567 -2.01265,-4.12593 -2.01265,-8.55376 0,-5.53479 7.24554,-25.46004 10.66705,-32.70559 18.51639,-50.71881 2.21392,-4.22657 3.01898,-4.6291 0.80506,-0.6038 2.11328,-0.6038 z" />
        <path
           id="path148"
           style="font-style:normal;font-variant:normal;font-weight:normal;font-stretch:normal;font-family:'Calling Heart';-inkscape-font-specification:'Calling Heart';stroke-width:5.15238714"
           d="m -780.02911,403.77903 q 3.01898,0 8.85567,3.72341 5.53479,3.42151 5.53479,7.34618 0,3.4215 -5.43416,16.10121 20.42841,-27.1708 32.70558,-27.1708 4.0253,0 11.47211,5.63543 2.91835,2.51581 2.91835,5.23289 v 0.20127 q 0,3.92467 -7.74871,21.73663 -9.66073,22.44106 -14.89362,37.73721 -3.11961,9.5601 -3.11961,10.76769 0,1.00632 0.80506,1.00632 h 0.10063 q 3.62278,0 21.23348,-21.53537 8.55376,-10.86831 14.49108,-19.52271 6.03796,-8.85567 9.2582,-15.19552 2.91834,-5.43416 4.931,-5.43416 1.10695,0 1.10695,2.11328 -0.30189,7.64808 -19.72398,39.5486 -23.54802,36.83152 -34.71823,36.83152 h -1.50949 q -8.15124,0 -13.68603,-7.84934 -2.31455,-4.12594 -2.31455,-8.15124 0,-3.22024 3.22024,-11.27085 12.9816,-36.12709 14.28983,-40.05176 0.20126,-1.50948 0.20126,-2.31454 v -0.50317 q -0.10063,-1.50949 -1.30822,-1.50949 -5.33353,0.9057 -18.11386,18.11387 -8.85567,13.08223 -13.18287,22.23979 -4.22657,8.9563 -6.44048,16.30248 -2.51582,9.05693 -2.51582,11.87464 v 2.91834 q 0,0.20127 -0.20126,0.20127 h -1.71075 q -7.54745,0 -13.08224,-7.14491 -2.81771,-4.22657 -2.81771,-8.55377 v -0.40253 q 0,-3.11961 3.11961,-10.86832 12.9816,-36.12709 14.08856,-39.54859 0.40253,-1.10696 0.40253,-2.31455 v -0.50317 q -0.20127,-0.90569 -0.80506,-0.90569 -3.92467,1.00633 -16.20184,16.90627 -13.48477,18.51639 -20.32778,30.99483 -6.94365,12.6797 -6.94365,19.32145 v 1.30823 q 0,0.30189 0.10063,1.81138 -0.20126,0.10063 -0.30189,0.10063 -11.47212,0 -15.59805,-11.97527 -0.70443,-2.91834 -0.70443,-5.33353 v -0.40253 q 0,-5.13226 6.54112,-23.44738 10.76768,-32.60495 18.51639,-50.92008 2.91834,-6.64175 4.83036,-6.64175 0.50316,-0.10063 0.90569,-0.10063 4.02531,0 10.96895,5.33352 2.71708,2.51582 2.71708,4.931 v 0.60379 q 0,4.22657 -9.15756,24.85625 v 0.3019 h 0.10063 q 6.03796,-9.45947 16.40311,-21.63601 13.68603,-14.89362 22.74296,-14.89362 z" />
        <path
           id="path150"
           style="font-style:normal;font-variant:normal;font-weight:normal;font-stretch:normal;font-family:'Calling Heart';-inkscape-font-specification:'Calling Heart';stroke-width:5.15238714"
           d="m -678.69211,404.2822 h 1.20759 q 9.05693,0 18.11386,10.36515 1.40885,1.91202 3.52214,5.23289 3.62277,-11.06958 4.83036,-12.88096 1.50949,-2.51582 3.32088,-2.51582 h 0.90569 q 3.52214,0 10.56642,5.43416 2.61644,2.51582 2.61644,4.72973 v 0.6038 q 0,4.12593 -8.95629,24.55434 -8.6544,20.02588 -14.69236,38.03911 -1.40885,4.72973 -1.91202,7.24555 v 0.50316 q 0,0.50316 0.50317,0.80506 h 0.30189 q 3.52214,0 21.03221,-21.23347 19.52272,-25.25878 24.75561,-36.42899 2.31455,-3.7234 3.82404,-4.0253 h 0.60379 q 0.70443,0.50316 0.70443,1.50949 v 0.80506 q 0,6.23922 -17.3088,35.62392 -7.64808,12.57907 -16.50374,23.95055 -13.38413,16.60438 -20.32778,16.60438 h -0.70443 q -0.20126,0 -0.40253,0.10063 -0.10063,-0.10063 -0.30189,-0.10063 h -0.40253 q -7.54745,0 -12.98161,-6.94365 -3.01897,-4.52846 -3.01897,-8.9563 l 0.20126,-1.91202 q -3.32087,4.6291 -9.56009,10.86832 -7.64808,7.04428 -14.89362,7.04428 h -1.50949 q -11.67338,0 -15.79931,-10.96895 -1.20759,-4.22657 -1.20759,-8.75503 v -0.20127 q 0,-14.39045 11.17021,-43.77516 4.52847,-10.96895 10.96895,-20.42841 10.96895,-14.89362 21.33411,-14.89362 z m -18.71766,70.94595 q 0,3.32088 1.61012,4.42784 l 0.80506,0.20126 q 2.21392,0 7.34618,-5.63542 6.44048,-6.64175 11.06958,-13.2835 13.78666,-20.12651 13.78666,-32.70558 v -1.10696 q 0,-5.23289 -4.12593,-7.24555 -0.70443,-0.10063 -1.30823,-0.10063 h -0.40253 q -4.93099,0 -12.07591,11.27085 -6.74238,11.67338 -12.17654,26.36573 -4.0253,12.17654 -4.0253,14.79299 -0.3019,0.80506 -0.50316,3.01897 z" />
        <path
           id="path152"
           style="font-style:normal;font-variant:normal;font-weight:normal;font-stretch:normal;font-family:'Calling Heart';-inkscape-font-specification:'Calling Heart';stroke-width:5.15238714"
           d="m -561.85771,403.77903 q 4.12594,0 11.67338,5.63543 2.81771,2.61644 2.81771,5.13226 v 0.40253 q 0,3.62277 -6.13859,17.71133 -11.47211,26.46636 -17.10753,43.47327 -2.51582,8.0506 -2.51582,8.9563 0.3019,1.00632 0.6038,1.00632 h 0.3019 q 3.82403,-0.20126 21.3341,-21.636 18.21449,-23.34675 23.54802,-34.3157 3.01898,-5.73606 5.03163,-5.73606 1.10696,0.3019 1.10696,1.81139 v 0.40253 q 0,6.94364 -19.82462,39.54859 -23.44739,36.73089 -34.6176,36.73089 h -1.50949 q -7.64807,0 -13.08223,-7.04428 -2.91835,-4.3272 -2.91835,-8.9563 0,-2.91834 2.81771,-10.06325 13.68603,-37.83785 14.49109,-40.65556 0.3019,-1.30822 0.3019,-2.31455 0,-1.00632 -0.70443,-1.20759 -2.91834,0 -14.89362,15.09488 -14.99425,20.12652 -21.83726,33.20875 -5.73606,10.96895 -5.73606,12.6797 -1.00632,2.51582 -1.00632,6.13859 v 3.11961 q 0,0.20126 -0.3019,0.20126 -11.27085,0 -15.59805,-11.77401 -0.70443,-3.4215 -0.70443,-5.53479 0,-5.43415 6.33985,-23.14549 11.97528,-36.52962 19.72399,-53.83842 2.21391,-4.42783 3.92467,-4.42783 0.40253,-0.10063 0.90569,-0.10063 4.42783,0 11.67338,6.13858 2.01265,2.21392 2.01265,4.6291 0,3.92467 -9.2582,25.25878 24.95688,-36.52963 39.14607,-36.52963 z" />
      </g>
      <path
         id="path3428"
         transform="matrix(1.4493781,0,0,1.4493781,-1125.5701,237.82857)"
         d="M 501.98438 111.75 C 500.87456 111.78694 499.9514 112.81443 497.375 116.13281 C 496.59909 117.13219 494.74489 119.27737 493.25391 120.90039 C 491.76293 122.52354 489.01395 125.66762 487.14453 127.88867 C 485.27516 130.10972 483.66688 131.9966 483.57031 132.08203 C 482.77799 132.78346 443.97083 178.96081 433.17383 192.05078 C 428.93761 197.186 428.37116 199.11502 429.34375 205.07812 C 430.76162 213.72127 433.27441 219.36719 435.70312 219.36719 C 437.87537 219.36719 438.77534 221.0332 439.80469 226.96094 C 441.16616 234.80148 440.43164 240.75047 437.86719 242.64648 C 436.96987 243.30989 436.72344 244.02411 437.27539 244.36523 C 437.56919 244.54687 440.58288 243.80532 444.29688 242.63672 C 447.73603 241.55474 448.84832 242.12078 450.91406 246.00391 C 451.47837 247.06473 454.12202 244.48562 456.75977 240.30078 C 457.1026 239.75687 457.13146 239.77185 457.14844 240.51758 C 457.17967 241.89355 456.31239 244.24987 455.32031 245.48438 C 453.50313 247.74555 454.09037 247.82395 459.68359 246.06055 C 464.8852 244.4206 466.30684 244.99182 466.99414 248.99805 C 467.0853 249.52939 467.21773 250.14684 467.28711 250.37109 C 467.46158 250.935 469.62916 249.0817 470.56445 247.56836 C 472.5119 244.41748 471.9844 248.58604 469.80859 253.53711 C 469.1621 255.00853 467.27659 257.14781 465.81836 258.06836 C 465.15995 258.484 464.62109 258.96656 464.62109 259.14062 C 464.62109 259.92837 465.97143 259.72672 470.88477 258.19922 C 476.77261 256.36871 476.66617 256.35644 477.00781 258.85352 C 477.1336 259.77298 477.45806 260.87562 477.72852 261.30273 C 477.99896 261.72983 478.31149 262.60347 478.42383 263.24414 C 478.53619 263.88495 478.81009 264.4082 479.03125 264.4082 C 479.81052 264.4082 486.9338 255.09224 488.04102 252.625 C 489.0798 250.31029 489.28107 250.22513 488.64648 252.37109 C 488.10732 254.19438 487.7922 254.85835 486.88086 256.0957 C 485.69496 257.70562 486.13586 257.58876 494.97461 253.94531 C 495.55057 253.70781 496.82157 255.26477 498.37109 258.10742 C 500.12959 261.33354 501.4242 260.97106 503.59961 256.64258 C 503.90013 256.04463 504.37229 255.29884 504.64844 254.98438 C 504.92458 254.66994 505.31567 254.04028 505.51758 253.58594 L 505.88477 252.75977 L 505.91016 253.72266 C 505.94408 255.01841 505.3929 256.57706 504.45312 257.8418 C 503.0157 259.77629 504.97866 259.5271 510.55469 257.06836 C 513.10077 255.94568 513.99503 256.45331 515.63281 259.95312 C 516.73738 262.31341 516.86627 262.33445 518.57812 260.44727 C 519.87858 259.01361 519.91108 258.99883 519.72852 259.9043 C 519.18357 262.60706 518.87307 263.24798 517.26367 264.98633 C 515.42951 266.96741 515.12954 267.69505 516.26367 267.41406 C 517.45057 267.12005 523.39395 265.05837 525.15039 264.33203 L 526.81641 263.64453 L 527.57227 264.57031 C 527.98804 265.07929 528.83066 266.2989 529.44531 267.28125 C 530.45028 268.88746 531.0957 269.49187 531.0957 268.82617 C 531.0957 268.08523 526.76484 262.54492 526.18555 262.54492 C 525.8955 262.54492 524.26056 263.04609 522.55273 263.66016 C 517.88907 265.33708 518.24281 265.37263 519.15039 263.32031 C 520.32221 260.67071 520.83432 258.07639 520.83984 254.7793 C 520.84449 251.79182 520.63078 250.47886 519.14648 244.43555 C 518.45157 241.60609 518.37738 240.91399 518.67578 240.00977 C 519.10908 238.69641 518.54078 238.66047 525.81445 240.44727 L 531.87305 241.93555 L 531.77148 243.46875 C 531.67207 244.98145 532.51806 249.88334 533.41797 253.01367 C 534.85639 258.0173 534.45867 264.36405 532.49414 267.7793 C 532.06645 268.52283 531.7168 269.18595 531.7168 269.25391 L 531.72461 269.25586 C 531.72461 269.53913 532.88638 269.35116 533.35156 268.99219 C 534.70917 267.94459 536.92439 261.81988 537.42578 257.73047 C 537.50958 257.04702 537.67782 255.75202 537.79883 254.85156 L 538.01758 253.21484 L 539.06445 253.41016 C 540.75516 253.72732 540.26357 253.09641 538.32422 252.45898 C 536.49421 251.85751 535.63505 251.38643 535.89258 251.12891 C 536.01587 251.00563 536.79623 251.20147 540.0625 252.17383 C 540.29229 252.24223 540.55345 252.57714 540.64258 252.91797 C 541.17408 254.95052 544.76799 250.32831 553.56445 236.29883 C 554.84974 234.24869 559.97885 226.49034 564.96094 219.05859 C 569.94284 211.62547 580.18136 196.32067 587.71289 185.04492 C 595.24442 173.76957 601.57322 164.40327 601.77734 164.23242 C 601.98145 164.06171 603.16929 162.38514 604.41797 160.50586 C 607.58831 155.73439 607.55552 154.26883 604.25586 153.49609 C 601.97574 152.96222 601.82091 152.8391 601.22266 151.06445 C 599.76447 146.73874 599.87896 139.2553 601.44336 136.58594 C 603.56917 132.95849 602.44932 131.76669 595.57812 130.34375 C 592.83367 129.77542 589.25974 129.01203 587.63672 128.64648 C 586.01376 128.28093 583.70764 127.79303 582.51172 127.5625 C 581.31574 127.33202 576.91219 126.4283 572.72656 125.55469 C 560.91792 123.09042 555.39634 121.99431 548.49609 120.74023 C 544.99391 120.10374 541.21986 119.40283 540.10938 119.18359 C 538.99875 118.96435 536.97223 118.56831 535.60547 118.30273 C 534.23879 118.03717 531.51354 117.48352 529.54883 117.07227 C 527.58405 116.66102 524.15854 116.0107 521.9375 115.62891 C 519.71664 115.24711 515.8738 114.54338 513.39648 114.06445 C 510.91917 113.58553 507.91272 113.0218 506.7168 112.8125 C 505.52102 112.6032 503.94982 112.23667 503.22461 111.99609 C 502.74463 111.83689 502.35431 111.73769 501.98438 111.75 z M 503.83008 113.00977 C 504.1432 112.99846 504.5785 113.07167 505.26953 113.22656 L 506.92383 113.59766 L 504.48633 116.45312 C 499.99128 121.71875 494.8388 127.87002 493.34961 129.75 C 492.53754 130.77507 491.21407 132.31375 490.4082 133.16797 C 489.60226 134.02213 487.5627 136.39712 485.875 138.44727 C 484.18723 140.4974 480.56565 144.74649 477.82812 147.88867 C 475.09059 151.03105 471.25751 155.50335 469.30859 157.82812 C 467.35962 160.15272 464.83792 163.10344 463.70508 164.38477 C 462.57212 165.6661 460.74259 167.82036 459.63867 169.17188 C 457.80449 171.41782 453.37373 176.65649 442.41016 189.54492 C 440.18911 192.1558 437.98812 194.86609 437.51953 195.56836 L 436.66797 196.8457 L 437.51953 197.06055 C 437.9882 197.1787 440.46859 197.97438 443.03125 198.82812 C 448.96867 200.80614 455.94478 202.99984 468.81445 206.9375 C 474.45233 208.66261 479.83379 210.35999 480.77344 210.70898 C 482.48294 211.34363 494.89087 215.18475 502.20703 217.34375 C 504.34253 217.97397 506.92806 218.75106 507.95312 219.07031 C 508.97819 219.38957 511.35509 220.0607 513.23438 220.5625 C 515.11361 221.06432 518.9584 222.17664 521.77734 223.03516 C 524.59628 223.89371 528.7893 225.11615 531.0957 225.75 C 533.40211 226.38384 535.41867 227.02199 535.57812 227.16797 C 536.14295 227.68509 535.53255 227.74615 534.17773 227.30859 C 533.42257 227.06474 531.05736 226.37434 528.92188 225.77539 C 526.78638 225.17651 523.08122 224.12881 520.68945 223.44727 C 518.2977 222.76572 514.24431 221.62556 511.68164 220.91211 C 509.11898 220.19863 504.92595 218.94013 502.36328 218.11523 C 499.80061 217.29032 494.83832 215.75768 491.33594 214.71094 C 487.83355 213.66419 483.43006 212.33473 481.55078 211.75586 C 479.67155 211.17694 476.17692 210.12477 473.78516 209.41797 C 469.29603 208.09159 455.67211 203.74429 445.05273 200.25 C 437.25696 197.68477 436.64728 197.55502 435.72852 198.24805 C 434.24446 199.36756 434.38293 199.42579 449.71094 204.31641 C 452.18806 205.10674 459.4566 207.48024 465.86328 209.58984 C 472.26995 211.69945 480.23884 214.21228 483.57031 215.17383 C 486.90179 216.13527 492.98176 218.02207 497.08203 219.36719 C 501.18231 220.71238 505.51504 222.09078 506.71094 222.42969 C 507.90692 222.76859 511.47224 223.80736 514.63281 224.73828 C 525.32885 227.88858 532.17799 229.88113 533.53516 230.23633 C 534.27852 230.43087 534.81117 230.66345 534.7207 230.75391 C 534.53577 230.93865 522.88069 228.17258 517.27344 226.61328 C 516.81128 226.48478 516.73951 226.53369 516.99219 226.80078 C 517.334 227.16196 522.1438 228.50914 529.7832 230.38281 C 534.55873 231.55415 534.35855 231.43024 534.24219 233.125 C 534.11475 234.982 533.95539 235.03686 530.85352 234.30859 C 527.66064 233.55898 527.67969 233.56244 527.67969 233.93555 C 527.67969 234.08935 528.41361 234.37607 529.31055 234.57422 C 530.20758 234.77235 531.58008 235.07376 532.36133 235.24414 L 533.78125 235.55469 L 534.15039 238.69141 L 534.14844 238.69336 C 534.58468 242.41192 534.83105 242.07582 532.18164 241.36719 C 530.98567 241.04729 527.58867 240.17688 524.63281 239.43164 C 518.3145 237.83852 519.08084 238.36416 518.17383 234.99219 C 517.10781 231.02906 517.1291 230.88645 518.74805 231.17773 C 519.47418 231.30836 520.69604 231.49173 521.46484 231.58594 C 522.23364 231.68016 523.35322 231.85527 523.95117 231.97461 C 526.78038 232.53911 522.30376 230.96637 515.09766 228.86328 C 513.56005 228.41463 510.39169 227.42228 508.05664 226.6582 C 505.72158 225.89412 503.73043 225.26953 503.63086 225.26953 C 503.25982 225.26953 503.46579 225.99051 503.93555 226.33398 C 504.52814 226.76729 503.54943 229.70505 502.75977 229.86328 C 502.5104 229.91333 499.51481 229.03961 496.10352 227.92188 C 488.80421 225.53014 486.98633 225.80127 486.98633 229.27539 C 486.98633 229.55769 486.87994 229.62555 486.71875 229.44727 C 486.40007 229.09478 485.74414 225.14139 485.74414 223.57617 L 485.74414 222.46875 L 487.5293 222.64648 C 490.24055 222.91639 489.19754 222.45907 480.71484 219.66602 C 470.71814 216.37445 470.25984 216.24284 470.04297 216.59375 C 469.94252 216.75627 470.28864 216.97531 470.8125 217.08008 C 471.95473 217.30853 471.94295 217.21476 471.00977 218.58984 C 470.59415 219.20235 470.01258 220.33684 469.7168 221.11133 C 469.32697 222.13208 469.04266 222.4777 468.68555 222.36523 C 468.41466 222.27988 465.49262 221.28921 462.19336 220.16602 C 458.8939 219.04275 455.92482 218.125 455.59375 218.125 C 454.75656 218.125 454.84025 218.57696 455.75586 218.99414 C 456.49732 219.33197 456.50898 219.37902 456.06836 220.43359 C 455.81814 221.03247 455.61328 221.80517 455.61328 222.15234 C 455.61328 223.41767 455.07149 222.73564 454.57227 220.8418 C 452.66728 213.61481 452.43094 211.74873 453.46875 212.07812 C 455.61906 212.76058 458.31586 213.46144 458.7168 213.44336 C 459.41112 213.4121 458.35454 212.99851 455.22461 212.07422 C 452.93374 211.39767 452.50586 211.16878 452.50586 210.62305 C 452.50586 209.87673 452.02325 209.80883 458.22266 211.42578 C 460.59841 212.04541 462.68843 212.50423 462.86523 212.44531 C 463.3671 212.27756 437.1502 203.52539 436.14453 203.52539 C 435.57533 203.52539 436.32484 204.29201 437.4082 204.81836 C 438.66695 205.4299 438.75227 205.54425 438.49609 206.28906 C 438.34327 206.73343 438.03475 208.70522 437.81055 210.66992 L 437.40234 214.24219 L 436.87891 212.5332 C 435.4605 207.8959 435.10013 206.40569 434.78516 203.90625 C 434.59729 202.41547 434.53473 200.32168 434.64648 199.25391 C 434.83638 197.43927 434.80843 197.3125 434.21484 197.3125 C 433.28852 197.3125 432.96964 198.17919 433.24609 199.95312 C 433.37923 200.80733 433.42748 201.6095 433.35156 201.73633 C 433.11972 202.12359 433.85261 206.70572 434.2168 207.14453 C 434.40453 207.37079 434.47231 207.89754 434.36719 208.31641 C 434.26087 208.73995 434.3272 209.17066 434.51562 209.28711 C 434.70199 209.40228 434.77743 209.79158 434.68359 210.15039 C 434.58561 210.5251 434.72268 211.03474 435.00586 211.34766 C 435.27704 211.64731 435.42511 212.17068 435.33594 212.51172 C 435.24675 212.85275 435.37075 213.29415 435.60938 213.49219 C 435.848 213.69022 436.04297 214.16747 436.04297 214.55273 C 436.04297 214.93801 436.25154 215.426 436.50781 215.63867 C 436.76408 215.85136 436.97461 216.21973 436.97461 216.45508 C 436.97461 216.69042 437.18319 216.88281 437.43945 216.88281 C 437.69571 216.88281 437.90625 217.02252 437.90625 217.19336 C 437.90625 217.9606 436.66541 217.44211 436.23242 216.49414 C 431.89432 206.99546 431.21905 197.36383 434.6582 194.02148 C 435.41942 193.28166 436.04297 192.45991 436.04297 192.19727 C 436.04297 191.93464 436.23516 191.7207 436.4707 191.7207 C 436.70625 191.7207 437.07285 191.3016 437.28516 190.78906 C 437.49745 190.27653 437.84071 189.85742 438.04883 189.85742 C 438.25694 189.85742 438.59535 189.48798 438.80078 189.03711 C 439.00621 188.58625 439.51756 187.94751 439.9375 187.61719 C 440.35745 187.28687 440.70117 186.87188 440.70117 186.69531 C 440.70117 186.51874 441.05139 186.09965 441.47852 185.76367 C 441.90564 185.42772 442.25391 184.95284 442.25391 184.70898 C 442.25391 184.46511 442.46753 184.26562 442.72656 184.26562 C 442.9856 184.26562 443.42434 183.78778 443.70312 183.20312 C 443.98192 182.61849 444.45001 182.07641 444.74219 182 C 445.03437 181.92357 445.46745 181.42162 445.70508 180.88477 C 445.94272 180.34791 446.36161 179.83865 446.63477 179.75195 C 447.17516 179.58045 447.84397 178.33897 447.85156 177.49414 C 447.85567 177.03739 447.89754 177.02936 448.16797 177.43164 C 448.50187 177.92838 450.01608 176.48136 450.01953 175.66211 C 450.02039 175.45786 450.3912 175.10959 450.84375 174.88672 C 451.2963 174.66384 451.91597 174.01129 452.2207 173.4375 C 452.52542 172.86369 453.04436 172.20425 453.375 171.97266 C 453.70564 171.74109 454.06852 171.09263 454.18164 170.53125 C 454.31809 169.85417 454.4712 169.64378 454.63477 169.90625 C 454.96362 170.43399 455.7901 169.53283 456.09375 168.31641 C 456.22882 167.77529 456.40211 167.57336 456.53906 167.79492 C 456.79241 168.20472 458.4082 166.47582 458.4082 165.79492 C 458.4082 165.5717 458.6882 165.31627 459.03125 165.22656 C 459.37427 165.13684 459.8977 164.52546 460.19531 163.86914 C 460.49296 163.21282 460.94686 162.67773 461.20312 162.67773 C 461.45939 162.67773 461.97811 162.0481 462.35547 161.2793 C 462.73284 160.51049 463.04779 160.01006 463.05469 160.16797 C 463.07959 160.72615 464.62438 158.9843 464.98242 157.99414 C 465.18886 157.42327 465.50912 157.05207 465.72461 157.13477 C 466.13205 157.29105 467.20295 155.95299 467.53906 154.86914 C 467.65335 154.5006 467.98231 154.22493 468.2793 154.24805 C 468.60057 154.27304 468.99904 153.89029 469.2793 153.28711 C 469.53557 152.73557 469.90794 152.28079 470.10742 152.27734 C 470.30693 152.27365 470.72601 151.71609 471.03906 151.03711 C 471.35211 150.35813 471.79138 149.79711 472.01367 149.79297 C 472.23593 149.78854 472.62424 149.29039 472.87695 148.68555 C 473.12968 148.0807 473.45287 147.65781 473.5957 147.74609 C 473.92492 147.94956 474.73504 147.04119 475 146.16992 C 475.11128 145.80398 475.46572 145.43561 475.78711 145.35156 C 476.1085 145.26751 476.61388 144.72919 476.91016 144.15625 C 477.20642 143.58331 477.84682 142.74219 478.33398 142.28711 C 478.82116 141.83204 479.21875 141.23603 479.21875 140.96289 C 479.21875 140.68975 479.41713 140.4668 479.6582 140.4668 C 480.17556 140.4668 481.70508 138.73603 481.70508 138.15039 C 481.70508 137.92716 481.98264 137.67084 482.32227 137.58203 C 482.66191 137.49321 483.06729 137.08175 483.22461 136.66797 C 483.38193 136.25417 483.86131 135.68652 484.28906 135.40625 C 484.71681 135.12598 485.30401 134.35981 485.59375 133.70312 C 485.88349 133.04643 486.41669 132.37747 486.7793 132.2168 C 487.1419 132.05612 487.75382 131.36503 488.13867 130.68164 C 488.52353 129.99828 488.84099 129.56865 488.84375 129.72656 C 488.85266 130.22748 490.34154 128.63438 490.51758 127.93555 C 490.61033 127.56735 491.00691 127.12593 491.39844 126.95508 C 491.78995 126.78423 492.31991 126.20851 492.57617 125.67578 C 492.83244 125.14306 493.31511 124.58425 493.64844 124.43359 C 493.98178 124.28296 494.54058 123.57163 494.89062 122.85352 C 495.26232 122.09095 495.75043 121.54162 496.0625 121.5332 C 496.35638 121.52525 496.9152 120.96136 497.30469 120.2793 C 497.69419 119.59723 498.16166 119.03849 498.34375 119.03711 C 498.52584 119.03579 498.98895 118.4744 499.37305 117.79102 C 499.75713 117.10763 500.2031 116.54883 500.36523 116.54883 C 500.52737 116.54883 500.96634 115.91919 501.33984 115.15039 C 501.71336 114.38159 502.15425 113.75391 502.32031 113.75391 C 502.48638 113.75391 502.84651 113.55141 503.11914 113.30469 C 503.32612 113.11737 503.51695 113.02107 503.83008 113.00977 z M 504.12305 113.44141 C 503.8737 113.44141 498.84318 119.3958 486.79883 133.94336 C 475.95953 147.03452 473.18842 150.31137 468.94727 155.06445 C 466.58436 157.71249 463.49323 161.30471 462.07617 163.04688 C 460.6591 164.78898 458.03019 167.8701 456.23633 169.89258 C 454.44246 171.91505 452.26381 174.40275 451.39258 175.42188 C 450.52123 176.44102 448.49272 178.78781 446.88672 180.63672 C 444.11481 183.82771 440.85257 187.75129 437.08008 192.42969 C 436.14515 193.58904 435.11074 194.70439 434.78125 194.91016 C 434.45176 195.11593 434.18359 195.53145 434.18359 195.83203 C 434.18359 197.11831 435.59915 196.41714 437.30469 194.28125 C 442.70863 187.52188 463.36013 162.97574 466.01172 160.16016 C 466.7661 159.35954 475.60712 148.87962 478.04492 145.89648 C 479.01963 144.70379 480.13725 143.36141 480.5293 142.91406 C 480.9215 142.46673 482.36176 140.72867 483.72852 139.05078 C 485.0954 137.37289 486.643 135.50282 487.16992 134.89453 C 489.3143 132.419 497.82893 122.1495 499.41797 120.12109 C 501.00239 118.09842 501.93032 116.99499 503.68555 115.05469 C 504.38556 114.28087 504.6131 113.44141 504.12305 113.44141 z M 505.17188 131.43945 C 506.08752 131.40796 506.94458 131.51302 507.74219 131.75586 L 507.75 131.75586 L 507.78711 131.76758 C 509.9102 132.4139 511.03676 133.94552 511.16602 136.36328 C 511.19121 137.56469 510.94969 138.73243 510.43945 139.86523 L 510.35156 140.06055 C 509.65512 141.63606 508.62701 142.80008 507.26562 143.55273 C 506.3525 143.96909 505.52746 144.06539 504.79297 143.8418 C 503.53035 143.45749 503.0567 142.22022 503.36914 140.12891 C 503.49009 139.58969 503.61721 139.17058 503.75 138.87109 C 503.96921 138.3763 504.16435 138.15465 504.33594 138.20703 L 504.33594 138.21094 C 504.37121 138.22102 504.47874 138.41567 504.66016 138.79688 C 504.92951 139.18908 505.2316 139.43579 505.56445 139.53711 C 506.13819 139.71172 506.72863 139.50848 507.33789 138.92578 C 507.56214 138.68389 507.73679 138.41938 507.86328 138.13281 L 507.95117 137.9375 C 508.27344 137.20833 508.23436 136.54604 507.83398 135.95117 C 507.62737 135.77026 507.43148 135.65164 507.24805 135.5957 L 507.04102 135.5332 C 505.82451 135.16289 504.17293 135.4812 502.08789 136.48633 C 501.02534 137.09355 500.24001 137.63569 499.72852 138.11523 C 498.90685 138.85486 498.35649 139.5371 498.08008 140.16211 L 498.08008 140.20117 C 497.7117 141.03451 497.8087 141.6858 498.37109 142.15234 C 498.78987 142.50135 500.05023 142.99545 502.15039 143.63477 L 502.15039 143.70312 L 502.15039 143.74219 C 502.01685 144.04168 501.33779 144.5594 500.11523 145.29492 C 499.79927 145.45013 499.57936 145.50925 499.45312 145.4707 C 498.85647 145.40696 498.21055 145.40778 497.51562 145.47656 C 496.45359 145.58163 495.32147 145.93252 494.12109 146.52734 C 493.05854 147.13459 492.34872 147.63555 491.99219 148.0293 C 490.99238 148.93631 490.25911 149.91601 489.79297 150.9707 L 489.73438 151.10742 C 489.19919 152.31838 489.1651 153.30682 489.63477 154.07031 C 489.92705 154.52857 490.40656 154.85791 491.07227 155.06055 C 492.33463 155.44485 493.93806 155.30568 495.88477 154.64258 C 497.50417 154.01283 499.80557 152.74215 502.78711 150.82812 C 503.97073 150.03133 504.97 149.30965 505.88477 148.62305 C 508.29825 145.67521 510.37884 143.21805 511.83594 141.68555 C 512.34164 141.1895 512.6917 140.97186 512.88672 141.03125 C 512.93711 141.03264 512.99088 141.04039 513.04883 141.05664 C 513.55377 141.21034 514.04432 141.81163 514.51953 142.85742 C 514.62284 143.21376 514.60538 143.54686 514.4668 143.85938 C 514.24254 144.36716 512.99308 145.84029 510.7168 148.2793 C 515.6521 144.41916 518.92848 142.73594 520.54688 143.22852 L 520.54883 143.23047 C 521.01925 143.37384 521.52404 143.94253 522.0625 144.93359 C 522.23384 145.36995 522.24714 145.75065 522.10352 146.07617 L 522.06641 146.1543 C 521.85979 146.62303 521.00236 147.66168 519.49609 149.27148 C 516.67405 152.2977 514.45521 154.81347 512.83984 156.81836 C 512.09251 157.77269 511.69448 158.30859 511.64258 158.42578 C 511.61738 158.56663 511.61738 158.64201 511.64258 158.65234 L 511.69531 158.66797 C 512.14306 158.7748 513.97849 157.74575 517.20117 155.58008 C 518.19145 154.88699 519.06217 154.25604 519.86914 153.66016 C 520.42098 152.97791 521.00905 152.2712 521.66797 151.51172 C 522.79452 150.25916 523.89631 149.19764 524.9707 148.32812 C 527.23464 146.5354 529.04839 145.84597 530.41406 146.26172 L 530.42188 146.25781 C 531.59226 146.61417 532.37148 147.67845 532.75977 149.45117 L 532.88086 150.41992 C 533.86958 149.2141 534.49942 148.48217 534.76953 148.22461 C 535.10868 147.92895 535.39779 147.81721 535.63867 147.89062 L 535.67773 147.90234 C 536.18268 148.05604 536.67726 148.65768 537.16406 149.70703 C 537.25477 150.05986 537.24286 150.36004 537.12695 150.60742 L 537.07422 150.72461 C 536.84493 151.24543 535.64021 152.65855 533.46094 154.96484 C 531.21363 157.3978 529.2771 159.61578 527.65039 161.61719 C 527.29965 162.08658 527.06033 162.41937 526.93359 162.61719 C 526.88824 162.72125 526.88849 162.80974 526.93359 162.88281 L 527.01953 162.91016 C 527.40958 163.02883 529.05984 162.14038 531.9668 160.24805 C 533.92355 158.91204 535.50742 157.76283 536.77734 156.76953 C 538.70724 154.42845 540.45564 152.37013 541.81055 150.92188 C 542.30466 150.45185 542.60776 150.20575 542.72266 150.18164 C 542.84864 150.1315 542.98705 150.12873 543.13672 150.17383 L 543.14258 150.17578 C 543.64752 150.32948 544.14204 150.92228 544.62305 151.95508 C 544.74399 152.30189 544.73013 152.63737 544.58398 152.96289 C 544.35469 153.48373 543.14796 154.90534 540.96289 157.22461 C 538.56617 159.81893 536.61741 162.04755 535.11719 163.91016 C 534.51347 164.71615 534.19266 165.1647 534.15234 165.25586 C 534.08935 165.39898 534.10958 165.48608 534.21289 165.51758 C 534.8156 165.51002 536.47815 164.58899 539.20117 162.75781 C 540.75899 161.6874 542.07128 160.73546 543.22656 159.85742 C 545.59943 156.96215 547.65428 154.53935 549.09375 153.02539 C 549.59945 152.52934 549.94926 152.3117 550.14453 152.37109 C 550.19492 152.3725 550.24869 152.38221 550.30664 152.39844 C 550.81159 152.55214 551.30213 153.15145 551.77734 154.19727 C 551.88065 154.55357 551.86319 154.8867 551.72461 155.19922 C 551.50036 155.70701 550.24894 157.18209 547.97266 159.62109 C 552.90822 155.76096 556.18652 154.07576 557.80469 154.56836 L 557.80273 154.57031 C 558.27329 154.71343 558.778 155.28212 559.31641 156.27344 C 559.48825 156.7098 559.50155 157.0905 559.35742 157.41602 L 559.32227 157.49414 C 559.11515 157.96288 558.25985 159.00153 556.75391 160.61133 C 553.93188 163.63755 551.71303 166.15329 550.09766 168.1582 C 549.35032 169.11251 548.95034 169.64844 548.89844 169.76562 C 548.87324 169.90648 548.87324 169.98186 548.89844 169.99219 L 548.95117 170.00781 C 549.39867 170.11465 551.2341 169.08559 554.45703 166.91992 C 555.2466 166.36728 555.96369 165.85217 556.63672 165.36133 C 556.66142 165.33007 556.68006 165.30498 556.70508 165.27344 C 558.2285 163.35875 559.65709 161.80686 560.99023 160.61719 C 561.65684 159.99281 562.47847 159.35715 563.45508 158.70898 C 564.44882 158.13989 565.13474 157.82363 565.51367 157.76172 C 566.13961 157.55334 566.79164 157.55363 567.46875 157.75977 L 567.46875 157.75781 C 568.63937 158.11415 569.58475 158.8892 570.30664 160.08398 C 570.58743 160.50921 570.64794 161.1394 570.48633 161.97656 C 570.40545 162.45422 570.25384 162.94076 570.03516 163.43555 L 569.95898 163.61133 C 569.24531 165.22592 567.83719 166.82067 565.73438 168.39648 C 565.03927 168.84967 564.4695 169.15078 564.02734 169.29688 C 563.06261 169.59409 562.25374 169.64257 561.59961 169.44336 L 561.39258 169.38086 C 560.65809 169.15736 560.12703 168.6338 559.80078 167.81055 L 559.78711 167.80664 C 558.78677 169.12713 558.11086 170.18426 557.75977 170.97852 C 557.32235 171.9681 557.33445 172.67363 557.79883 173.0957 C 557.95958 173.23328 558.11466 173.32574 558.26367 173.37109 L 558.41992 173.41797 C 559.55607 173.76382 561.62871 173.0805 564.63867 171.36719 C 566.59176 170.18896 568.17442 169.12738 569.38672 168.18164 C 570.81735 167.06597 572.26507 165.82216 573.73047 164.45117 C 573.97765 164.24557 574.14238 164.15499 574.22266 164.17969 C 574.37182 164.22504 574.39861 164.35209 574.30664 164.56055 C 573.99584 165.26369 572.52255 166.89093 569.88477 169.44141 C 568.4711 170.78382 566.76484 172.12534 564.76562 173.4668 C 563.36396 174.36965 562.1858 175.01496 561.23242 175.4043 C 559.18795 176.20014 557.38511 176.36183 555.82422 175.88672 L 555.60156 175.81836 C 554.84415 175.58781 554.30141 175.25176 553.97461 174.8125 C 553.30966 174.04871 553.05043 173.04776 553.19531 171.80664 C 553.26586 171.08924 553.44146 170.41147 553.72266 169.77344 L 553.85547 169.4707 C 550.31627 172.1966 547.9957 173.41749 546.92578 173.0918 L 546.66797 173.01172 C 545.79565 172.74622 545.25015 172.06499 545.0332 170.96484 C 544.94753 170.30365 545.03817 169.6732 545.30273 169.07422 C 545.46903 168.69662 545.91773 168.09421 546.64844 167.26758 C 550.37329 162.84687 552.36226 160.46751 552.61523 160.13086 C 552.72358 159.97212 552.80533 159.82751 552.86328 159.69727 C 552.92123 159.567 552.92123 159.47813 552.86328 159.42773 C 552.53043 159.32644 551.2504 160.04269 549.02148 161.58008 C 546.16038 163.66371 543.96619 165.43353 542.4375 166.88867 C 541.15599 168.1088 540.46495 168.82943 540.36719 169.05078 C 540.10842 169.34135 539.87704 169.72072 539.66992 170.18945 L 539.40039 170.79492 C 539.40039 170.82087 539.37739 170.82919 539.33203 170.81836 C 538.04674 170.4271 537.49392 169.39435 537.67383 167.7207 C 537.78973 167.25353 537.90835 166.8828 538.0293 166.60938 C 538.18835 166.24971 538.54624 165.70018 539.07812 164.98242 C 535.54492 167.70456 533.22166 168.91661 532.12891 168.58398 C 531.06157 168.25907 530.51127 167.44087 530.47852 166.13086 C 530.47852 165.52712 530.60766 164.93814 530.86719 164.36523 C 531.06358 163.92083 531.61561 163.12904 532.44727 162.06445 C 531.86931 162.5135 531.33338 162.90457 530.84375 163.23047 C 529.02277 164.37504 527.4172 165.25228 526.02734 165.86328 C 525.1258 166.25356 524.35421 166.5441 523.71094 166.73242 C 523.40681 166.77274 523.23991 166.82538 523.21094 166.89062 C 521.33125 169.16958 520.06956 170.63989 519.42578 171.30078 C 518.57539 172.16458 517.47227 172.67137 516.11719 172.82031 C 515.45703 172.87071 514.87005 172.81543 514.35352 172.6582 L 514.11133 172.58594 C 513.19315 172.30645 512.49046 171.65649 512.00391 170.63672 C 511.80233 170.02917 511.84002 169.41212 512.11719 168.78711 C 512.66975 167.53712 513.916 166.48377 515.85742 165.62695 C 516.87966 165.22904 517.82237 164.9408 518.68359 164.75977 C 519.49317 164.60732 520.24478 164.49703 520.93945 164.42773 C 521.56585 163.74684 522.25266 162.98657 523 162.15039 L 523 162.13281 L 523 162.12891 C 522.58047 162.48872 521.74447 162.99549 520.49219 163.64844 C 519.32053 164.23721 518.31007 164.4011 517.46094 164.14258 L 517.375 164.11719 C 515.90602 163.67002 515.29825 162.6284 515.55273 160.99219 C 515.651 160.44597 515.82061 159.89843 516.0625 159.35156 L 516.0625 159.33398 C 516.24035 158.93155 516.47838 158.486 516.75586 158.01172 C 513.12527 160.82562 510.75406 162.08255 509.66797 161.75195 L 509.41211 161.67188 C 508.54005 161.40635 507.99429 160.72317 507.77734 159.62305 C 507.69167 158.96186 507.78231 158.33334 508.04688 157.73438 C 508.21316 157.35677 508.65993 156.75439 509.39062 155.92773 C 513.11548 151.50705 515.10445 149.12767 515.35742 148.79102 C 515.46577 148.63228 515.54947 148.48766 515.60742 148.35742 C 515.66537 148.22715 515.66537 148.13633 515.60742 148.08594 C 515.27457 147.98465 513.99479 148.70287 511.76562 150.24023 C 508.90453 152.32389 506.70813 154.09371 505.17969 155.54883 C 503.89792 156.76899 503.20909 157.48958 503.11133 157.71094 C 502.85256 158.00151 502.61923 158.38087 502.41211 158.84961 L 502.14453 159.45508 C 502.14453 159.48103 502.12153 159.48935 502.07617 159.47852 C 500.79088 159.08723 500.23806 158.05451 500.41797 156.38086 C 500.53387 155.91368 500.65249 155.54297 500.77344 155.26953 C 500.91847 154.94131 501.23381 154.45065 501.68945 153.82422 C 501.27227 154.14716 500.89214 154.45981 500.44336 154.79102 C 495.13514 158.52287 490.92671 159.9155 487.81641 158.96875 C 486.0491 158.43072 484.86834 157.21501 484.27344 155.32031 C 483.88515 153.60662 484.07436 151.8841 484.83984 150.15234 L 484.89258 150.03516 C 485.79034 148.00391 487.36509 146.19301 489.61719 144.60352 C 490.11709 144.23861 490.8312 143.82845 491.76172 143.37305 C 493.1861 142.743 494.32848 142.36805 495.18945 142.24609 C 495.29276 142.21838 495.44541 142.19815 495.64648 142.18555 L 495.64648 142.14648 C 495.25039 141.95222 494.82357 141.54793 494.36523 140.93555 C 493.83812 140.03645 493.82621 139.02147 494.32812 137.88867 C 495.03616 136.28711 496.5707 134.77496 498.93164 133.35156 C 500.44219 132.55572 501.54757 132.08662 502.24805 131.94531 C 503.28175 131.63949 504.25622 131.47095 505.17188 131.43945 z M 600.80664 132.91211 L 601.07422 133.94141 C 601.32653 134.9151 601.12554 135.28819 597.35938 140.81641 C 595.16935 144.0311 590.68857 150.68311 587.40234 155.59961 C 580.60406 165.77185 575.20714 173.65711 567.31641 184.94531 C 564.67451 188.72471 562.98135 191.17012 557.65625 198.89844 C 555.77683 201.62588 553.28718 205.21396 552.12305 206.87305 C 550.95908 208.53216 548.28012 212.40527 546.16992 215.48047 C 544.05972 218.55567 541.23694 222.63653 539.89844 224.54883 C 538.5599 226.46106 537.37547 228.03324 537.26562 228.04297 C 536.73349 228.08979 536.46665 225.74978 536.96875 225.43945 C 537.3007 225.23436 541.51505 219.25251 546.06641 212.5293 C 556.74664 196.75337 558.45589 194.26249 560.89844 190.90039 C 561.99879 189.38591 564.48554 185.84042 566.42578 183.02148 C 568.36606 180.20254 571.07577 176.28892 572.44727 174.32422 C 573.8187 172.35944 577.02424 167.67662 579.57031 163.91797 C 582.11638 160.15931 585.25275 155.54725 586.53906 153.66797 C 587.82534 151.78854 590.03733 148.50268 591.45508 146.36719 C 595.34394 140.50941 598.79481 135.482 599.85742 134.125 L 600.80664 132.91211 z M 598.60547 141.12109 C 598.71258 141.11935 598.6744 141.38924 598.47656 141.94141 C 598.19244 142.73371 590.85536 153.57893 584.24023 162.98633 C 578.89795 170.58306 574.85226 176.45991 568.79492 185.41602 C 567.0376 188.01445 565.07856 190.87945 564.44336 191.7832 C 563.80813 192.68695 561.46894 196.01327 559.24414 199.17383 C 557.01934 202.3344 554.53312 205.89784 553.71875 207.09375 C 550.66766 211.57458 545.10254 219.53313 541.34766 224.78711 C 539.21217 227.77518 537.35831 230.22438 537.22852 230.22852 C 537.09872 230.23293 537.4882 229.57324 538.0918 228.76172 C 538.69541 227.95024 541.32543 224.20983 543.9375 220.45117 C 549.39005 212.60568 552.60124 208.00172 556.04297 203.0957 C 557.37666 201.19454 559.51631 198.10194 560.79688 196.22266 C 562.07762 194.34323 565.13637 189.87094 567.5957 186.2832 C 570.05524 182.69546 573.74307 177.31406 575.78906 174.32422 C 577.83525 171.33456 580.52162 167.42083 581.75977 165.62695 C 582.99783 163.83309 585.29115 160.47828 586.85742 158.17188 C 588.42368 155.86547 591.00327 152.09157 592.58789 149.78516 C 594.17253 147.47895 596.11627 144.5776 596.9082 143.33984 C 597.84217 141.88013 598.42695 141.124 598.60547 141.12109 z M 598.44141 143.84961 C 598.50206 144.03158 596.90478 146.59479 594.89258 149.54492 C 589.0998 158.0371 580.46356 170.82838 573.78125 180.81055 C 572.35865 182.93656 547.35777 219.08989 545.1875 222.16016 C 542.66988 225.72201 539.44615 230.20322 537.36914 233.03125 C 535.27355 235.88471 535.13672 236.04376 535.13672 235.61719 C 535.13672 235.43383 537.08222 232.62257 539.46094 229.36914 C 541.83965 226.11552 544.45838 222.42865 545.2793 221.17578 C 546.10026 219.9231 552.65348 210.37082 559.8418 199.94922 C 567.03012 189.52842 575.13052 177.71805 577.84375 173.70312 C 580.55678 169.68822 583.63182 165.2139 584.67773 163.76172 C 585.72375 162.30947 589.22359 157.16093 592.45508 152.32031 C 595.68657 147.47968 598.38076 143.66763 598.44141 143.84961 z M 547.42969 145.35742 C 547.50076 145.35135 547.57172 145.35794 547.64062 145.37891 L 547.64453 145.38477 C 548.12655 145.53141 548.61514 146.13074 549.11328 147.18359 C 549.21659 147.53993 549.20468 147.86197 549.07617 148.14844 L 549.07617 148.1875 C 548.87964 148.63021 548.38821 149.27065 547.60156 150.10938 C 547.28559 150.35302 547.00676 150.43856 546.76562 150.36523 C 546.52375 150.29191 546.07019 149.85785 545.40625 149.06445 C 545.04543 148.43756 544.9512 147.92969 545.12305 147.53906 C 545.1684 147.435 545.71504 146.84768 546.76172 145.77734 C 546.99435 145.5158 547.21647 145.37564 547.42969 145.35742 z M 598.58008 145.79688 C 598.69589 145.78403 598.69006 146.00477 598.57812 146.44531 C 598.28808 147.58735 590.54094 159.06318 584.05859 167.95508 C 579.43729 174.2936 565.30573 194.74606 561.30859 200.88086 C 557.38476 206.90324 555.31227 209.95484 550.59375 216.65039 C 548.75938 219.25337 546.04795 223.20083 544.56836 225.42188 C 543.08868 227.64292 541.77691 229.52981 541.65234 229.61523 C 541.52786 229.70059 540.18392 231.53863 538.66797 233.69922 L 538.66992 233.69922 C 537.15388 235.85981 535.74648 237.88651 535.54297 238.20312 C 535.33945 238.51962 535.16437 238.66007 535.1543 238.51562 C 535.1292 238.15662 538.2068 233.59934 541.26758 229.46094 C 542.65759 227.5817 545.23619 223.86308 546.99805 221.19727 C 548.75991 218.53146 550.91262 215.31643 551.78125 214.05273 C 554.98992 209.38461 556.59896 206.90051 556.85742 206.2207 C 557.00344 205.83541 564.23944 195.25313 572.9375 182.70117 C 586.93696 162.49895 591.75548 155.50342 596.93555 147.85156 C 597.85958 146.48659 598.38705 145.81829 598.58008 145.79688 z M 598.99609 148.24805 C 599.08712 148.26222 599.07497 148.37711 598.95508 148.57812 C 597.88813 150.36725 591.43135 159.78282 588.75586 163.45117 C 585.10569 168.45599 576.76134 180.43229 568.8457 192.02734 C 563.22344 200.26405 561.13363 203.36179 551.44922 217.81055 C 544.01589 228.90097 541.44873 232.69239 538.16211 237.43164 L 538.16016 237.43164 C 535.4833 241.29167 535.44531 241.34034 535.44531 240.90039 C 535.44531 240.72889 536.25007 239.4525 537.23242 238.06445 C 540.67059 233.20625 543.36976 229.22977 543.67773 228.57031 C 544.04702 227.77977 545.7148 225.31523 549.5918 219.83008 C 551.1616 217.60904 556.79013 209.29193 562.09961 201.34766 C 567.40891 193.40337 572.45432 185.92444 573.31055 184.72852 C 574.16688 183.53255 575.63025 181.43706 576.56445 180.07031 C 578.31683 177.50646 580.37856 174.55928 583.10938 170.71094 C 583.97361 169.49302 585.95594 166.69696 587.51562 164.49805 C 589.07536 162.29932 592.1921 157.77483 594.44141 154.44336 C 596.6907 151.11188 598.68418 148.3325 598.87109 148.26758 C 598.92422 148.24914 598.96575 148.24332 598.99609 148.24805 z M 530.47656 149.71289 C 529.81859 149.71611 528.79037 150.32012 527.39258 151.52344 C 526.09973 152.71056 524.75831 154.11137 523.36719 155.72656 C 522.28649 157.05214 521.68937 157.84506 521.57422 158.10547 C 521.4306 158.28336 521.23773 158.58694 520.99609 159.01562 L 521.01367 159.01758 C 520.89777 159.27799 520.83984 159.54084 520.83984 159.80664 C 520.87512 159.93514 520.93304 160.01072 521.01367 160.03516 L 521.01367 160.03906 C 521.27748 160.11944 521.84568 159.89328 522.71875 159.36133 C 524.26407 158.45779 525.46615 157.63475 526.32812 156.89258 C 527.23597 156.16436 527.97825 155.51878 528.55273 154.95508 C 529.75412 153.7105 530.55609 152.63217 530.95898 151.7207 L 531.06055 151.48633 C 531.36543 150.79624 531.32635 150.2531 530.94336 149.85547 C 530.82745 149.79096 530.75901 149.75485 530.73633 149.74805 C 530.65743 149.72402 530.57056 149.71243 530.47656 149.71289 z M 598.99414 149.93555 C 599.04806 149.92133 599.09631 149.92424 599.13672 149.94922 C 599.50709 150.17802 598.9186 151.33565 597.36328 153.43359 C 596.70809 154.31719 595.12313 156.5302 593.8418 158.35156 C 592.56045 160.1729 590.90421 162.52112 590.16016 163.56836 C 589.41626 164.61556 585.96725 169.73462 582.49609 174.94531 C 575.99378 184.70619 574.40033 187.04556 569.9043 193.42773 C 567.22802 197.22728 565.09733 200.41614 550.60352 222.31641 C 546.08128 229.14934 541.15796 236.41969 539.66211 238.4707 C 534.88089 245.02605 535.20014 244.27065 540.69922 236.02539 C 542.84933 232.8016 545.1575 229.30719 545.82812 228.25977 C 547.44437 225.73464 564.05159 200.82059 567.80273 195.29297 C 575.13885 184.48253 576.86312 181.93799 580.01953 177.27539 C 583.26446 172.48199 586.56245 167.78583 590.60938 162.18945 C 592.80869 159.14804 597.92169 151.53416 598.47461 150.47656 C 598.62722 150.18468 598.83239 149.97821 598.99414 149.93555 z M 599.63477 152.00195 C 599.66319 152.00611 599.68161 152.0264 599.68945 152.06641 C 599.74469 152.34811 599.9198 152.58008 600.07812 152.58008 C 601.22431 152.58008 597.22345 159.02761 584.61914 177.50195 C 579.19288 185.45671 568.832 200.96654 563.85742 208.58203 C 559.64275 215.03396 559.45809 215.31213 551.36523 227.30273 C 547.73461 232.68178 544.76367 237.2191 544.76367 237.38672 C 544.76367 237.55432 544.64827 237.69141 544.50781 237.69141 C 544.36732 237.69141 542.93492 239.64387 541.32422 242.0293 C 538.75312 245.83692 537.92969 246.85308 537.92969 246.21875 C 537.92969 246.05258 541.50449 240.78967 545.78516 234.65625 C 546.94541 232.99377 548.2047 231.06449 548.58203 230.36914 C 548.95941 229.67384 550.36961 227.43848 551.7168 225.40039 C 553.06393 223.36231 556.61268 217.99034 559.60352 213.46289 C 562.59435 208.93544 565.5237 204.53195 566.11328 203.67773 C 573.53257 192.92518 599.22816 153.82387 599.01367 153.60938 C 598.93019 153.52589 598.71091 153.73902 598.52734 154.08203 C 598.34377 154.42503 598.01317 154.89031 597.79102 155.11719 C 597.56893 155.34401 592.26034 163.21871 585.99414 172.61523 C 579.72814 182.01097 572.28391 193.12296 569.45312 197.30859 C 564.3833 204.80693 553.94201 220.46036 549.35352 227.44141 C 544.75987 234.43017 537.41401 244.83594 537.07422 244.83594 C 536.99263 244.83594 537.17528 244.45223 537.48047 243.98242 C 537.78565 243.51257 538.52551 242.35763 539.125 241.41797 C 539.72445 240.47846 540.83105 238.80189 541.58203 237.69141 C 544.66356 233.13471 556.25133 215.63729 557.52539 213.61719 C 559.88475 209.87651 569.02402 196.3047 570.39062 194.51367 C 571.80276 192.66231 579.57852 181.11351 585.72656 171.73438 C 587.83558 168.5171 590.97837 163.90343 592.71094 161.48242 C 594.44355 159.06142 596.69954 155.83818 597.72461 154.31836 C 598.74357 152.80764 599.43577 151.97283 599.63477 152.00195 z M 601.10156 154.51367 C 601.1345 154.50721 601.15642 154.52069 601.16797 154.55078 C 601.36674 155.06864 597.59219 161.19989 592.34375 168.88672 C 588.52642 174.47639 578.57467 189.29315 567.41016 206.00781 C 561.64741 214.63553 553.90025 226.16779 550.19336 231.63477 C 546.48648 237.10172 542.525 242.99796 541.39062 244.73828 L 541.39062 244.74023 C 539.56061 247.54766 538.86328 248.37893 538.86328 247.75 C 538.86328 247.64351 540.93398 244.46183 543.46484 240.68164 C 551.8523 228.15479 568.11474 203.71261 575.25781 192.90039 C 579.12968 187.03945 584.23179 179.37413 586.5957 175.86523 C 588.9596 172.35632 591.51552 168.51162 592.27539 167.32227 C 597.70354 158.82589 600.60747 154.61057 601.10156 154.51367 z M 605.01172 155.5332 L 605.01758 156.34766 C 605.0235 157.18344 584.41477 188.38788 568.2168 212.06641 C 565.58102 215.9193 555.5352 230.86648 547.54883 242.81836 C 545.03753 246.57681 542.75464 250.09818 542.47656 250.64258 L 542.47852 250.64453 C 541.85119 251.87266 541.46772 252.1281 541.2207 251.48438 C 541.11592 251.21132 540.82962 251.06394 540.58398 251.1582 C 540.15404 251.32319 534.94643 250.03627 534.58594 249.67578 C 534.24511 249.33503 535.30885 249.51407 537.25781 250.125 C 539.71277 250.89455 540.65833 250.9439 540.10352 250.27539 C 539.89083 250.01912 539.5746 249.81055 539.40039 249.81055 C 537.92937 249.81055 534.76304 248.45426 534.46094 247.69531 C 534.27775 247.23514 533.7954 246.13423 533.38867 245.24805 C 532.38588 243.0632 532.42847 242.75984 533.76758 242.60352 C 534.59441 242.50697 534.92435 242.59881 535.02539 242.95703 C 535.68612 245.29959 538.69578 249.72176 539.44531 249.45117 C 539.77251 249.33302 542.55652 245.28472 549.02148 235.52148 C 555.20172 226.18956 566.36596 209.34343 571.56836 201.50586 C 574.06326 197.74741 577.52347 192.64529 579.25586 190.16797 C 582.32039 185.78554 596.93483 163.90372 600.49609 158.36523 C 602.16047 155.7767 604.03968 154.60653 602.53516 157.0957 C 601.77782 158.34839 594.37137 169.31594 589.11523 176.9668 C 586.41563 180.89557 580.26017 190.05167 575.43555 197.3125 C 570.61093 204.57333 566.36527 210.93278 566.00195 211.44531 C 565.63859 211.95784 563.20156 215.59212 560.58594 219.52148 C 557.97031 223.45085 554.4834 228.62386 552.83789 231.01562 C 551.19241 233.40739 548.74377 236.97085 547.39648 238.93555 C 546.04935 240.90033 543.90521 243.97594 542.63281 245.76953 C 540.31386 249.03829 539.95647 249.7898 540.60938 250.02148 C 541.14681 250.21314 558.02571 225.65588 579.39844 193.58594 C 584.23727 186.3251 589.6529 178.21638 591.43359 175.56836 C 593.21442 172.92033 596.71985 167.67857 599.22266 163.91992 C 601.72546 160.16127 604.05191 156.73766 604.39258 156.31055 L 605.01172 155.5332 z M 567.6543 160.59766 C 566.69599 160.79064 564.77328 162.38555 561.88672 165.38477 C 561.36368 165.94945 561.00405 166.34999 560.80859 166.58594 L 560.81055 166.58789 C 560.93653 166.95123 561.14899 167.1787 561.44727 167.26953 L 561.46094 167.27344 C 562.16098 167.4866 563.319 166.9311 564.93359 165.60547 C 565.36454 165.24913 565.87667 164.72458 566.46875 164.0332 C 567.22758 163.08237 567.73914 162.30794 568.00391 161.70898 L 568.08984 161.51367 C 568.32014 160.99285 568.30313 160.69168 568.03906 160.61133 L 568.00586 160.59961 C 567.90831 160.56991 567.7912 160.57009 567.6543 160.59766 z M 518.51367 167.09375 C 517.73862 167.28625 516.93255 167.59336 516.09375 168.01758 C 515.71479 168.22722 515.45871 168.48181 515.32617 168.78125 L 515.31055 168.78125 C 515.1896 169.05469 515.22036 169.24833 515.4043 169.36328 L 515.50586 169.39453 C 515.78126 169.47844 516.2962 169.22799 517.04883 168.64453 C 517.23277 168.52333 517.72048 168.00662 518.51367 167.0957 L 518.51367 167.09375 z M 435.81445 202.08789 C 435.64635 202.0658 435.53568 202.06784 435.50391 202.09961 C 435.31422 202.28919 435.34085 202.29875 438.53125 203.33008 C 439.81261 203.74429 440.89675 204.09652 440.93945 204.11328 C 440.98213 204.13012 441.01562 204.01402 441.01562 203.85352 C 441.01562 203.56035 436.99119 202.2425 435.81445 202.08789 z M 450.11328 202.70898 C 450.19765 202.62461 454.02068 203.76739 458.60938 205.24805 C 463.19827 206.72855 468.76919 208.48453 470.99023 209.15039 C 473.21128 209.81626 475.23983 210.45311 475.49609 210.56445 C 475.75236 210.67585 476.06522 210.74391 476.19336 210.7168 C 476.3215 210.68967 476.42773 210.80767 476.42773 210.97852 C 476.42773 211.39629 476.79219 211.49484 469.4375 209.10742 C 465.84976 207.94286 460.00015 206.06057 456.4375 204.92578 C 452.87486 203.79104 450.02897 202.79329 450.11328 202.70898 z M 443.50195 203.25586 C 443.20826 203.25586 443.26465 203.35516 443.65625 203.52344 C 443.99793 203.67026 444.48787 203.79102 444.74414 203.79102 C 445.03783 203.79102 444.97949 203.69171 444.58789 203.52344 C 444.24621 203.3766 443.75822 203.25586 443.50195 203.25586 z M 445.53711 203.85938 C 445.35682 203.87271 446.11803 204.2109 447.22852 204.61133 C 448.33902 205.01176 449.45858 205.33924 449.71484 205.33984 C 449.97112 205.34046 449.20991 205.00229 448.02344 204.58789 C 446.83694 204.1735 445.71739 203.84599 445.53711 203.85938 z M 439.88086 205.38867 C 440.43548 205.39025 451.80255 208.98648 452.12305 209.26172 C 452.168 209.30031 451.99483 209.83639 451.73633 210.45508 C 450.87697 212.51194 451.45073 219.50815 452.96484 225.42383 C 455.65573 235.93691 455.58895 240.00336 452.66016 244.12695 C 451.53825 245.70652 451.58819 245.69835 450.72852 244.44727 C 449.93244 243.28863 448.94742 242.18341 447.83203 241.19727 L 447.05273 240.50977 L 443.73242 241.58594 C 439.88977 242.832 438.7913 242.97111 439.52148 242.11914 C 441.75977 239.50767 441.9195 231.76734 439.91797 222.93945 C 438.14143 215.10424 438.12088 205.38384 439.88086 205.38867 z M 463.85742 210.08203 C 463.69905 210.08203 463.71804 210.17394 464.00195 210.35742 C 464.25821 210.52304 464.67732 210.65001 464.93359 210.64062 C 465.24082 210.62936 465.18893 210.53344 464.7793 210.35742 C 464.35232 210.17394 464.0158 210.08203 463.85742 210.08203 z M 465.64648 210.78516 C 465.51213 210.91912 475.57882 214.26531 486.67773 217.77539 L 486.67969 217.77539 C 488.81538 218.45077 490.77107 219.00081 491.02734 218.99805 C 491.28361 218.99488 488.69808 218.08645 485.28125 216.98047 C 481.86441 215.87459 476.08337 213.99528 472.43359 212.80273 C 468.78381 211.61027 465.72978 210.70187 465.64648 210.78516 z M 482.25586 212.60742 C 482.55165 212.50883 500.65649 218.01978 500.92773 218.29102 C 501.27963 218.64284 499.76934 218.23495 493.97656 216.41211 C 490.55973 215.3369 486.45792 214.06355 484.86133 213.58203 C 483.26481 213.10054 482.09215 212.662 482.25586 212.60742 z M 462.67578 214.92773 C 462.48247 214.91709 462.33729 214.94541 462.28906 215.02344 C 462.19379 215.17763 462.57538 215.43576 463.13672 215.59766 C 464.49459 215.98931 464.69124 215.99955 464.48633 215.66797 C 464.27748 215.33012 463.2557 214.95968 462.67578 214.92773 z M 457.44336 215.63672 C 457.10168 215.63672 456.90808 215.77642 457.01367 215.94727 C 457.11926 216.1181 457.48449 216.25781 457.82617 216.25781 C 458.16786 216.25781 458.36144 216.1181 458.25586 215.94727 C 458.15027 215.77643 457.78505 215.63672 457.44336 215.63672 z M 472.73438 218.04492 C 473.45843 217.98436 474.54389 218.34948 476.49414 218.99219 C 478.59209 219.68358 481.35733 220.55433 482.63867 220.92773 C 485.44439 221.7454 485.22656 221.55009 484.64258 222.7207 C 483.54648 224.91784 483.42019 227.11638 484.14453 231.38281 C 484.85686 235.57852 485.88071 242.99177 486.2168 246.39062 C 486.66927 250.96628 484.69985 256.91668 481.63867 260.22266 C 480.73662 261.19687 479.88662 262.18712 479.75 262.42383 C 479.39413 263.04042 478.91211 262.95517 478.91211 262.27539 C 478.91211 261.95674 478.6327 261.33869 478.29102 260.9043 C 477.92876 260.44375 477.66992 259.64421 477.66992 258.98633 C 477.66992 255.40975 476.701 255.0381 471.62109 256.66211 C 467.0092 258.1365 467.06372 258.14632 468.69531 256.17188 C 473.09709 250.84618 473.67147 243.94744 470.75195 231.48242 C 469.47197 226.01743 469.45171 223.40469 470.66406 220.70312 C 471.47129 218.9043 471.80345 218.12279 472.73438 218.04492 z M 465.30273 218.13477 C 465.08203 218.15485 464.93359 218.24383 464.93359 218.41016 C 464.93359 218.56848 465.17953 218.76171 465.47852 218.83984 C 466.81494 219.18908 467.31981 219.07707 466.66016 218.57812 C 466.23946 218.25992 465.67057 218.10129 465.30273 218.13477 z M 437.55664 218.5293 C 437.89361 218.52709 438.20719 218.96896 438.21484 219.59766 C 438.22085 220.08827 438.15965 220.0841 437.42383 219.54102 C 436.93029 219.17674 436.89425 219.02227 437.22266 218.68945 C 437.33006 218.58061 437.44432 218.53003 437.55664 218.5293 z M 492.89062 219.41211 C 492.63436 219.41211 493.12234 219.67112 493.97656 219.98633 C 494.83084 220.30153 495.73983 220.55859 495.99609 220.55859 C 496.25236 220.55859 495.76438 220.30153 494.91016 219.98633 C 494.05588 219.6711 493.14689 219.41211 492.89062 219.41211 z M 457.61719 219.55859 C 458.25551 219.59516 459.59208 220.02552 462.86914 221.11328 L 468.36523 222.9375 L 468.49219 227.28711 C 468.56221 229.67887 468.85157 233.16326 469.13477 235.03125 C 469.83041 239.61976 469.66903 246.33993 468.82227 248.02148 C 468.05797 249.53918 468.05513 249.53655 466.86523 247.08789 C 466.30488 245.93463 465.5022 244.5986 465.08008 244.11914 L 464.3125 243.24805 L 460.67773 244.50781 C 455.76454 246.21125 455.76577 246.21259 457.04102 243.38477 C 458.32082 240.54685 458.23766 234.54592 456.85156 229.77148 C 455.67693 225.72555 455.71955 221.54835 456.95312 219.86133 C 457.10287 219.65653 457.23419 219.53665 457.61719 219.55859 z M 490.09375 220.02344 C 489.83747 220.02873 490.11884 220.2209 490.7168 220.45117 C 492.13502 220.99736 492.69184 220.99071 491.49219 220.44141 C 490.97965 220.20672 490.35001 220.01792 490.09375 220.02344 z M 515.01758 222.50781 C 515.14737 222.46762 515.90222 222.62886 516.96484 222.95703 C 517.81901 223.22081 522.35293 224.54457 527.04102 225.90039 C 531.7291 227.2563 535.70652 228.5073 535.87891 228.67969 C 536.40468 229.20546 535.52809 229.0068 531.09766 227.59375 C 528.79125 226.85795 524.51041 225.54584 521.58398 224.67773 C 518.65776 223.80962 515.93245 222.96686 515.52734 222.80469 C 515.08782 222.62874 514.9397 222.53193 515.01758 222.50781 z M 499.63867 223.13672 C 499.51838 223.13289 499.42281 223.14096 499.35938 223.16211 C 499.13282 223.23763 499.5769 223.52173 500.3457 223.79297 C 501.91949 224.34824 502.94896 224.46734 502.70117 224.06641 C 502.50201 223.74427 500.48074 223.1635 499.63867 223.13672 z M 493.07812 224.33984 C 492.96158 224.36287 492.89062 224.4147 492.89062 224.5 C 492.89063 224.59093 493.20544 224.79275 493.58984 224.94727 C 494.74435 225.41132 495.3209 225.32329 494.61719 224.79102 C 494.18199 224.46185 493.42777 224.27077 493.07812 224.33984 z M 489.42773 226.52734 L 493.56641 227.86914 C 495.84218 228.60698 498.5767 229.47725 499.64453 229.80273 C 501.12615 230.25435 501.54012 230.5038 501.39258 230.85938 C 500.43999 233.15491 500.51904 239.66036 501.5625 244.99414 C 502.61928 250.39573 502.60281 255.66163 501.52539 257.96289 C 500.44543 260.26705 500.35177 260.23845 498.63867 257.0957 C 497.84369 255.63731 496.92306 254.27597 496.59375 254.07031 C 496.26444 253.86464 495.99414 253.4659 495.99414 253.18359 C 495.99414 252.21043 495.18949 252.37132 491.66992 254.04492 C 487.52676 256.01506 487.72841 256.04973 488.74805 253.52539 C 490.22545 249.8681 490.04137 245.75154 488.05664 238.04297 C 486.59664 232.3727 486.76249 229.53048 488.67773 227.37305 L 489.42773 226.52734 z M 505.7832 226.96094 C 506.45292 226.93047 507.67239 227.35245 510.37109 228.18555 C 512.8006 228.9355 515.24162 229.64584 515.79688 229.76367 C 516.95325 230.00909 516.94562 229.98232 516.34961 231.63672 C 516.07532 232.398 515.89936 234.08111 515.89453 235.98438 C 515.88673 239.04614 516.01075 239.95237 517.56836 248.25586 C 518.47011 253.06309 518.58345 257.02107 517.88672 259.36719 C 517.23248 261.57024 517.01629 261.56886 516.05859 259.35156 C 514.45915 255.64826 512.78977 254.33122 511.05664 255.40234 C 510.27026 255.8884 505.78094 257.88477 505.47461 257.88477 C 505.43919 257.88477 505.68352 257.08001 506.01758 256.09766 C 506.88719 253.54052 506.62693 250.24422 504.85742 241.42188 C 503.16744 232.99608 503.11575 231.17268 504.49609 228.45312 C 504.99272 227.47467 505.11349 226.9914 505.7832 226.96094 z M 536.51953 231.20117 C 536.59151 231.20087 536.47131 231.49935 536.13086 232.09766 C 535.83984 232.60912 535.48742 233.02861 535.34766 233.0293 C 535.20789 233.03038 535.39286 232.61215 535.75781 232.09961 C 536.18416 231.50115 536.44755 231.20148 536.51953 231.20117 z M 519.32031 234.94531 C 518.91015 234.89854 519.00238 234.99581 519.42969 235.3418 C 519.76131 235.61033 520.38387 235.83008 520.8125 235.83008 C 521.90508 235.83008 521.26136 235.26813 519.9043 235.03711 C 519.64977 234.99378 519.45703 234.9609 519.32031 234.94531 z M 529.42773 236.80273 C 529.11311 236.80273 528.96514 236.89262 529.07617 237.07227 C 529.18176 237.24312 529.78543 237.3686 530.41602 237.35156 C 531.44587 237.32374 531.48268 237.29566 530.78516 237.07227 C 530.22417 236.89262 529.74236 236.80273 529.42773 236.80273 z M 524.00391 237.07227 C 522.56984 237.07227 523.55285 237.41993 528.34961 238.61328 C 533.23388 239.82844 534.13207 240.00512 533.81055 239.68359 C 533.50607 239.37912 524.84296 237.07227 524.00391 237.07227 z "
         style="stroke-width:0.19758449" />
      <g
         aria-label="_"
         style="font-style:normal;font-variant:normal;font-weight:normal;font-stretch:normal;font-size:206.0954895px;line-height:1.25;font-family:'Calling Heart';-inkscape-font-specification:'Calling Heart';font-variant-ligatures:normal;font-variant-position:normal;font-variant-caps:normal;font-variant-numeric:normal;font-variant-alternates:normal;font-feature-settings:normal;text-indent:0;text-align:start;text-decoration:none;text-decoration-line:none;text-decoration-style:solid;text-decoration-color:#000000;letter-spacing:0px;word-spacing:0px;text-transform:none;writing-mode:lr-tb;direction:ltr;text-orientation:mixed;dominant-baseline:auto;baseline-shift:baseline;text-anchor:start;white-space:normal;shape-padding:0;opacity:1;vector-effect:none;fill:#000000;fill-opacity:1;stroke:none;stroke-width:5.15238714;stroke-linecap:butt;stroke-linejoin:miter;stroke-miterlimit:4;stroke-dasharray:none;stroke-dashoffset:0;stroke-opacity:1"
         id="text130"
         transform="translate(-82.776786,-9.4494048)">
        <path
           d="m -911.54594,528.34337 c 8.20399,0.3447 16.47882,0.60085 24.82449,0.76844 3.76044,0.0755 380.40877,0.13305 384.19798,0.17261 4.16833,0.0435 8.35406,0.0653 12.55721,0.0653 h 4.3272 c 3.82403,0 7.11136,-0.0671 9.86199,-0.20126 0.60379,0.60379 0.90569,1.50948 0.90569,2.71707 0,3.22025 -2.31455,5.29999 -6.94365,6.23922 -0.46601,0.34951 -7.17835,0.62315 -20.13703,0.82092 -1.966,0.03 -376.9493,0.0583 -379.20285,0.0848 -2.14343,0 -4.19021,-0.0121 -6.14035,-0.0364 -13.24844,-0.16508 -22.03643,-0.8909 -26.36397,-2.17747 -1.07341,-0.40253 -1.61012,-1.03987 -1.61012,-1.91202 0,-2.8848 1.03987,-5.03163 3.11961,-6.44048 z"
           style="font-style:normal;font-variant:normal;font-weight:normal;font-stretch:normal;font-size:206.0954895px;line-height:1.25;font-family:'Calling Heart';-inkscape-font-specification:'Calling Heart';font-variant-ligatures:normal;font-variant-position:normal;font-variant-caps:normal;font-variant-numeric:normal;font-variant-alternates:normal;font-feature-settings:normal;text-indent:0;text-align:start;text-decoration:none;text-decoration-line:none;text-decoration-style:solid;text-decoration-color:#000000;letter-spacing:0px;word-spacing:0px;text-transform:none;writing-mode:lr-tb;direction:ltr;text-orientation:mixed;dominant-baseline:auto;text-anchor:start;white-space:normal;shape-padding:0;vector-effect:none;fill:#000000;fill-opacity:1;stroke:none;stroke-width:5.15238714;stroke-linecap:butt;stroke-linejoin:miter;stroke-miterlimit:4;stroke-dasharray:none;stroke-dashoffset:0;stroke-opacity:1"
           id="path132" />
      </g>
    </g>
  </g>
</svg>
