<?xml version="1.0" encoding="UTF-8" standalone="no"?>
<svg
   xmlns:dc="http://purl.org/dc/elements/1.1/"
   xmlns:cc="http://creativecommons.org/ns#"
   xmlns:rdf="http://www.w3.org/1999/02/22-rdf-syntax-ns#"
   xmlns:svg="http://www.w3.org/2000/svg"
   xmlns="http://www.w3.org/2000/svg"
   id="svg8"
   version="1.1"
   viewBox="0 0 169.33333 84.666665"
   height="84.666664mm"
   width="169.33333mm">
  <defs
     id="defs2" />
  <metadata
     id="metadata5">
    <rdf:RDF>
      <cc:Work
         rdf:about="">
        <dc:format>image/svg+xml</dc:format>
        <dc:type
           rdf:resource="http://purl.org/dc/dcmitype/StillImage" />
        <dc:title></dc:title>
      </cc:Work>
    </rdf:RDF>
  </metadata>
  <g
     transform="translate(1147.2578,-690.69537)"
     id="layer1">
    <rect
       style="fill:#ffffff;stroke-width:0.04639278"
       y="690.69537"
       x="-1147.2578"
       height="84.666664"
       width="169.33333"
       id="rect90" />
    <g
       transform="matrix(0.18254956,0,0,0.18254956,-941.78548,647.27987)"
       id="g140">
      <g
         id="text36"
         style="font-style:normal;font-variant:normal;font-weight:normal;font-stretch:normal;font-size:206.0954895px;line-height:1.25;font-family:'Calling Heart';-inkscape-font-specification:'Calling Heart';letter-spacing:0px;word-spacing:0px;fill:#000000;fill-opacity:1;stroke:none;stroke-width:5.15238714"
         aria-label="Gaiman">
        <path
           id="path142"
           style="font-style:normal;font-variant:normal;font-weight:normal;font-stretch:normal;font-family:'Calling Heart';-inkscape-font-specification:'Calling Heart';stroke-width:5.15238714"
           d="m -1007.0562,367.55131 h 0.5032 q 14.89362,0 25.25877,11.77401 5.93732,7.54744 5.93732,13.5854 0,17.6107 -11.27085,34.0138 -6.03795,7.74871 -8.85566,8.75504 -3.32088,1.61012 -7.74868,1.61012 -7.8494,0 -15.3968,-4.22657 -3.1196,-2.11328 -3.1196,-3.62277 v -0.20127 q 0.1006,-1.20759 7.1449,-7.7487 9.7614,-10.06326 11.774,-13.68603 3.32088,-4.42784 5.13226,-8.6544 2.61645,-6.23922 2.71708,-10.06326 -0.3019,-2.41518 -2.21391,-2.41518 h -1.2076 q -8.85563,0 -20.93153,13.18286 -8.1513,9.66073 -11.774,16.10121 -6.7424,10.56642 -12.5791,25.25878 -8.0506,20.62967 -8.0506,34.81887 0,12.88096 7.3462,17.0069 2.9183,1.40885 6.5411,1.40885 5.0316,0 10.2645,-2.31454 1.4088,-6.33986 4.3272,-12.98161 2.5158,-5.43415 8.4531,-15.79931 0.7045,-1.30822 0.7045,-1.91202 -0.2013,-0.40253 -0.3019,-0.40253 l -10.8684,2.91835 q -2.6164,0.40253 -4.4278,0.40253 -6.4405,0 -8.755,-4.931 -1.3082,-2.81771 -1.3082,-7.64807 0,-2.61645 3.0189,-3.52214 2.1133,0.10063 3.019,0.10063 8.2519,0 19.8246,-2.31455 11.2709,-2.21392 16.0006,-2.21392 h 1.10696 q 7.14491,0 9.25819,4.32721 0.20127,0.40253 0.3019,1.30822 0,2.21391 -4.6291,10.06325 -15.19555,28.78092 -15.19555,44.1777 v 1.71075 q 0,6.44049 3.2203,12.07591 v 0.10063 q -1.6101,1.81139 -8.0506,1.81139 h -0.6038 q -11.0696,0 -14.793,-6.03795 l -0.5032,-1.71076 q -9.1575,4.42784 -17.4094,4.42784 -22.2398,0 -29.7872,-25.56068 -2.4152,-9.05693 -2.4152,-19.62335 0,-24.25244 14.2898,-54.03968 4.2266,-8.3525 9.6607,-16.50374 3.8241,-6.03796 12.4785,-15.39678 17.51,-17.40944 33.9131,-17.40944 z" />
        <path
           id="path144"
           style="font-style:normal;font-variant:normal;font-weight:normal;font-stretch:normal;font-family:'Calling Heart';-inkscape-font-specification:'Calling Heart';stroke-width:5.15238714"
           d="m -942.75196,404.2822 h 1.20759 q 9.05693,0 18.11386,10.36515 1.40886,1.91202 3.52214,5.23289 3.62277,-11.06958 4.83037,-12.88096 1.50948,-2.51582 3.32087,-2.51582 h 0.90569 q 3.52214,0 10.56642,5.43416 2.61645,2.51582 2.61645,4.72973 v 0.6038 q 0,4.12593 -8.9563,24.55434 -8.6544,20.02588 -14.69235,38.03911 -1.40886,4.72973 -1.91202,7.24555 v 0.50316 q 0,0.50316 0.50316,0.80506 h 0.3019 q 3.52214,0 21.0322,-21.23347 19.52272,-25.25878 24.75561,-36.42899 2.31455,-3.7234 3.82404,-4.0253 h 0.6038 q 0.70443,0.50316 0.70443,1.50949 v 0.80506 q 0,6.23922 -17.30881,35.62392 -7.64807,12.57907 -16.50374,23.95055 -13.38413,16.60438 -20.32777,16.60438 h -0.70443 q -0.20127,0 -0.40253,0.10063 -0.10063,-0.10063 -0.3019,-0.10063 h -0.40253 q -7.54744,0 -12.9816,-6.94365 -3.01898,-4.52846 -3.01898,-8.9563 l 0.20127,-1.91202 q -3.32088,4.6291 -9.5601,10.86832 -7.64807,7.04428 -14.89361,7.04428 h -1.50949 q -11.67338,0 -15.79932,-10.96895 -1.20759,-4.22657 -1.20759,-8.75503 v -0.20127 q 0,-14.39045 11.17022,-43.77516 4.52846,-10.96895 10.96895,-20.42841 10.96895,-14.89362 21.3341,-14.89362 z m -18.71766,70.94595 q 0,3.32088 1.61013,4.42784 l 0.80506,0.20126 q 2.21391,0 7.34617,-5.63542 6.44049,-6.64175 11.06958,-13.2835 13.78667,-20.12651 13.78667,-32.70558 v -1.10696 q 0,-5.23289 -4.12594,-7.24555 -0.70443,-0.10063 -1.30822,-0.10063 h -0.40253 q -4.931,0 -12.07591,11.27085 -6.74238,11.67338 -12.17654,26.36573 -4.0253,12.17654 -4.0253,14.79299 -0.3019,0.80506 -0.50317,3.01897 z" />
        <path
           id="path146"
           style="font-style:normal;font-variant:normal;font-weight:normal;font-stretch:normal;font-family:'Calling Heart';-inkscape-font-specification:'Calling Heart';stroke-width:5.15238714"
           d="m -855.30226,376.10508 q 4.22656,0 11.67337,6.13859 2.01266,2.21391 2.01266,4.42783 v 0.20126 q 0,3.42151 -3.22025,10.76769 -1.61012,2.31455 -3.7234,2.31455 -2.11329,0 -9.96263,-4.02531 -4.93099,-3.52213 -4.93099,-6.54111 0,-0.80506 4.42783,-10.26452 1.20759,-3.01898 3.62277,-3.01898 z m -12.27718,27.97585 q 4.42784,0 11.67338,6.03796 2.11329,2.11328 2.11329,4.62909 0,4.02531 -8.9563,24.35308 -9.66073,22.64233 -14.89362,38.44164 -1.91202,6.74239 -1.91202,7.44681 0,1.10696 0.90569,1.10696 4.6291,-1.30822 19.42209,-19.42208 19.72398,-24.75561 25.86257,-37.63658 2.61644,-4.42783 4.42783,-4.72973 h 0.10063 q 1.20759,0 1.20759,2.11328 0,5.93732 -15.49741,32.60495 -26.76826,43.8758 -39.2467,43.8758 -9.35883,0 -14.08856,-8.85567 -2.01265,-4.12593 -2.01265,-8.55376 0,-5.53479 7.24554,-25.46004 10.66705,-32.70559 18.51639,-50.71881 2.21392,-4.22657 3.01898,-4.6291 0.80506,-0.6038 2.11328,-0.6038 z" />
        <path
           id="path148"
           style="font-style:normal;font-variant:normal;font-weight:normal;font-stretch:normal;font-family:'Calling Heart';-inkscape-font-specification:'Calling Heart';stroke-width:5.15238714"
           d="m -780.02911,403.77903 q 3.01898,0 8.85567,3.72341 5.53479,3.42151 5.53479,7.34618 0,3.4215 -5.43416,16.10121 20.42841,-27.1708 32.70558,-27.1708 4.0253,0 11.47211,5.63543 2.91835,2.51581 2.91835,5.23289 v 0.20127 q 0,3.92467 -7.74871,21.73663 -9.66073,22.44106 -14.89362,37.73721 -3.11961,9.5601 -3.11961,10.76769 0,1.00632 0.80506,1.00632 h 0.10063 q 3.62278,0 21.23348,-21.53537 8.55376,-10.86831 14.49108,-19.52271 6.03796,-8.85567 9.2582,-15.19552 2.91834,-5.43416 4.931,-5.43416 1.10695,0 1.10695,2.11328 -0.30189,7.64808 -19.72398,39.5486 -23.54802,36.83152 -34.71823,36.83152 h -1.50949 q -8.15124,0 -13.68603,-7.84934 -2.31455,-4.12594 -2.31455,-8.15124 0,-3.22024 3.22024,-11.27085 12.9816,-36.12709 14.28983,-40.05176 0.20126,-1.50948 0.20126,-2.31454 v -0.50317 q -0.10063,-1.50949 -1.30822,-1.50949 -5.33353,0.9057 -18.11386,18.11387 -8.85567,13.08223 -13.18287,22.23979 -4.22657,8.9563 -6.44048,16.30248 -2.51582,9.05693 -2.51582,11.87464 v 2.91834 q 0,0.20127 -0.20126,0.20127 h -1.71075 q -7.54745,0 -13.08224,-7.14491 -2.81771,-4.22657 -2.81771,-8.55377 v -0.40253 q 0,-3.11961 3.11961,-10.86832 12.9816,-36.12709 14.08856,-39.54859 0.40253,-1.10696 0.40253,-2.31455 v -0.50317 q -0.20127,-0.90569 -0.80506,-0.90569 -3.92467,1.00633 -16.20184,16.90627 -13.48477,18.51639 -20.32778,30.99483 -6.94365,12.6797 -6.94365,19.32145 v 1.30823 q 0,0.30189 0.10063,1.81138 -0.20126,0.10063 -0.30189,0.10063 -11.47212,0 -15.59805,-11.97527 -0.70443,-2.91834 -0.70443,-5.33353 v -0.40253 q 0,-5.13226 6.54112,-23.44738 10.76768,-32.60495 18.51639,-50.92008 2.91834,-6.64175 4.83036,-6.64175 0.50316,-0.10063 0.90569,-0.10063 4.02531,0 10.96895,5.33352 2.71708,2.51582 2.71708,4.931 v 0.60379 q 0,4.22657 -9.15756,24.85625 v 0.3019 h 0.10063 q 6.03796,-9.45947 16.40311,-21.63601 13.68603,-14.89362 22.74296,-14.89362 z" />
        <path
           id="path150"
           style="font-style:normal;font-variant:normal;font-weight:normal;font-stretch:normal;font-family:'Calling Heart';-inkscape-font-specification:'Calling Heart';stroke-width:5.15238714"
           d="m -678.69211,404.2822 h 1.20759 q 9.05693,0 18.11386,10.36515 1.40885,1.91202 3.52214,5.23289 3.62277,-11.06958 4.83036,-12.88096 1.50949,-2.51582 3.32088,-2.51582 h 0.90569 q 3.52214,0 10.56642,5.43416 2.61644,2.51582 2.61644,4.72973 v 0.6038 q 0,4.12593 -8.95629,24.55434 -8.6544,20.02588 -14.69236,38.03911 -1.40885,4.72973 -1.91202,7.24555 v 0.50316 q 0,0.50316 0.50317,0.80506 h 0.30189 q 3.52214,0 21.03221,-21.23347 19.52272,-25.25878 24.75561,-36.42899 2.31455,-3.7234 3.82404,-4.0253 h 0.60379 q 0.70443,0.50316 0.70443,1.50949 v 0.80506 q 0,6.23922 -17.3088,35.62392 -7.64808,12.57907 -16.50374,23.95055 -13.38413,16.60438 -20.32778,16.60438 h -0.70443 q -0.20126,0 -0.40253,0.10063 -0.10063,-0.10063 -0.30189,-0.10063 h -0.40253 q -7.54745,0 -12.98161,-6.94365 -3.01897,-4.52846 -3.01897,-8.9563 l 0.20126,-1.91202 q -3.32087,4.6291 -9.56009,10.86832 -7.64808,7.04428 -14.89362,7.04428 h -1.50949 q -11.67338,0 -15.79931,-10.96895 -1.20759,-4.22657 -1.20759,-8.75503 v -0.20127 q 0,-14.39045 11.17021,-43.77516 4.52847,-10.96895 10.96895,-20.42841 10.96895,-14.89362 21.33411,-14.89362 z m -18.71766,70.94595 q 0,3.32088 1.61012,4.42784 l 0.80506,0.20126 q 2.21392,0 7.34618,-5.63542 6.44048,-6.64175 11.06958,-13.2835 13.78666,-20.12651 13.78666,-32.70558 v -1.10696 q 0,-5.23289 -4.12593,-7.24555 -0.70443,-0.10063 -1.30823,-0.10063 h -0.40253 q -4.93099,0 -12.07591,11.27085 -6.74238,11.67338 -12.17654,26.36573 -4.0253,12.17654 -4.0253,14.79299 -0.3019,0.80506 -0.50316,3.01897 z" />
        <path
           id="path152"
           style="font-style:normal;font-variant:normal;font-weight:normal;font-stretch:normal;font-family:'Calling Heart';-inkscape-font-specification:'Calling Heart';stroke-width:5.15238714"
           d="m -561.85771,403.77903 q 4.12594,0 11.67338,5.63543 2.81771,2.61644 2.81771,5.13226 v 0.40253 q 0,3.62277 -6.13859,17.71133 -11.47211,26.46636 -17.10753,43.47327 -2.51582,8.0506 -2.51582,8.9563 0.3019,1.00632 0.6038,1.00632 h 0.3019 q 3.82403,-0.20126 21.3341,-21.636 18.21449,-23.34675 23.54802,-34.3157 3.01898,-5.73606 5.03163,-5.73606 1.10696,0.3019 1.10696,1.81139 v 0.40253 q 0,6.94364 -19.82462,39.54859 -23.44739,36.73089 -34.6176,36.73089 h -1.50949 q -7.64807,0 -13.08223,-7.04428 -2.91835,-4.3272 -2.91835,-8.9563 0,-2.91834 2.81771,-10.06325 13.68603,-37.83785 14.49109,-40.65556 0.3019,-1.30822 0.3019,-2.31455 0,-1.00632 -0.70443,-1.20759 -2.91834,0 -14.89362,15.09488 -14.99425,20.12652 -21.83726,33.20875 -5.73606,10.96895 -5.73606,12.6797 -1.00632,2.51582 -1.00632,6.13859 v 3.11961 q 0,0.20126 -0.3019,0.20126 -11.27085,0 -15.59805,-11.77401 -0.70443,-3.4215 -0.70443,-5.53479 0,-5.43415 6.33985,-23.14549 11.97528,-36.52962 19.72399,-53.83842 2.21391,-4.42783 3.92467,-4.42783 0.40253,-0.10063 0.90569,-0.10063 4.42783,0 11.67338,6.13858 2.01265,2.21392 2.01265,4.6291 0,3.92467 -9.2582,25.25878 24.95688,-36.52963 39.14607,-36.52963 z" />
      </g>
      <path
         d="m -354.91088,583.77106 c 0,-0.0985 0.50718,-1.06086 1.12706,-2.13852 2.84734,-4.94999 3.42217,-14.14777 1.33735,-21.39992 -1.30431,-4.53703 -2.52938,-11.64343 -2.38529,-13.83591 l 0.146,-2.22149 -8.77911,-2.15666 c -10.5423,-2.58974 -9.71955,-2.53922 -10.34757,-0.63567 -0.4325,1.31057 -0.32589,2.31471 0.68131,6.41566 2.15131,8.75905 2.463,10.66144 2.45627,14.99143 -0.008,4.77873 -0.75196,8.54054 -2.45037,12.38082 -1.31543,2.97458 -1.82775,2.92332 4.93167,0.49283 2.47528,-0.89002 4.84431,-1.61825 5.2647,-1.61825 0.83962,0 7.11785,8.03052 7.11785,9.10443 0,0.96485 -0.93559,0.0893 -2.39217,-2.23871 -0.89086,-1.4238 -2.1128,-3.1925 -2.71541,-3.9302 l -1.09567,-1.34162 -2.41351,0.99805 c -2.54575,1.05274 -11.16087,4.03932 -12.88113,4.46545 -1.64379,0.40725 -1.2099,-0.6465 1.44849,-3.51784 2.33263,-2.51952 2.78355,-3.44909 3.57338,-7.36641 0.2646,-1.31236 0.21735,-1.29003 -1.6675,0.78788 -2.48113,2.73524 -2.66719,2.704 -4.26813,-0.71694 -2.37376,-5.07255 -3.66903,-5.80854 -7.35926,-4.18136 -8.08177,3.56364 -10.92834,3.92419 -8.84497,1.12038 1.36209,-1.83308 2.1609,-4.09086 2.11173,-5.9689 l -0.0366,-1.39602 -0.53209,1.1973 c -0.29264,0.65852 -0.85955,1.57022 -1.25978,2.02595 -0.40024,0.45578 -1.08408,1.53775 -1.51965,2.40441 -3.15299,6.27361 -5.03075,6.79968 -7.57948,2.12382 -2.24584,-4.12008 -4.08828,-6.37815 -4.92306,-6.03392 -12.81069,5.28074 -13.44844,5.45028 -11.72963,3.1169 1.32088,-1.79339 1.77633,-2.75438 2.55779,-5.39701 0.91975,-3.11032 0.62825,-2.98862 -0.87734,0.36627 -1.60478,3.57596 -11.92951,17.07966 -13.05896,17.07966 -0.32055,0 -0.71586,-0.75951 -0.87872,-1.68829 -0.16282,-0.92857 -0.61677,-2.1948 -1.00875,-2.81383 -0.39199,-0.61905 -0.8619,-2.21582 -1.04422,-3.54847 -0.49517,-3.6192 -0.34189,-3.60288 -8.8756,-0.94978 -7.12128,2.21393 -9.07608,2.5082 -9.07608,1.36646 0,-0.25228 0.78078,-0.95156 1.73507,-1.55398 2.11353,-1.33422 4.84431,-4.43709 5.78132,-6.56973 3.15356,-7.17597 3.92019,-13.2179 1.0976,-8.65109 -1.35559,2.1934 -4.49867,4.88183 -4.75154,4.06452 -0.10055,-0.32503 -0.29093,-1.22108 -0.42306,-1.99119 -0.99616,-5.80654 -3.05876,-6.63559 -10.59786,-4.25868 -8.10669,2.55584 -8.95637,2.44383 -6.32258,-0.83347 1.43789,-1.78926 2.69475,-5.20399 2.64948,-7.1983 -0.0246,-1.08084 -0.0659,-1.10404 -0.56279,-0.31571 -3.82309,6.06542 -7.65422,9.80346 -8.47211,8.26592 -2.99404,-5.62812 -4.60633,-6.44859 -9.59097,-4.8804 -5.38298,1.69374 -9.75249,2.76958 -10.17832,2.50632 -0.79999,-0.49442 -0.44372,-1.53079 0.85683,-2.49232 3.71686,-2.74804 4.78217,-11.36993 2.80888,-22.73384 -1.49192,-8.59153 -2.79585,-11.00596 -5.94425,-11.00596 -3.52012,0 -7.16194,-8.18257 -9.21697,-20.70975 -1.40965,-8.64279 -0.58879,-11.44067 5.55109,-18.88354 15.64894,-18.97232 71.89435,-85.89808 73.04272,-86.91471 0.13997,-0.12382 2.47138,-2.85887 5.1808,-6.07801 2.7095,-3.21914 6.69458,-7.77737 8.85557,-10.12993 2.161,-2.35237 4.84946,-5.46232 5.97405,-6.9108 4.97891,-6.41278 5.69428,-6.91881 8.47698,-5.99582 1.05111,0.34868 3.32939,0.88217 5.06253,1.18553 1.73334,0.30336 6.08919,1.11947 9.67975,1.81361 3.59057,0.69415 9.16198,1.71481 12.38084,2.26817 3.21913,0.55336 8.18257,1.4938 11.03028,2.08985 2.84761,0.59606 6.79826,1.39869 8.7791,1.7836 1.98095,0.38492 4.91849,0.95984 6.52821,1.2776 1.60951,0.31776 7.07975,1.33256 12.15574,2.25508 10.00106,1.81763 18.00294,3.40815 35.11813,6.97981 6.06655,1.26619 12.44841,2.57552 14.18184,2.90957 1.73334,0.33412 5.07627,1.04101 7.42855,1.57083 2.35237,0.52981 7.53137,1.63726 11.50912,2.46099 9.95896,2.06238 11.58271,3.79017 8.5016,9.04772 -2.2674,3.86892 -2.43206,14.71393 -0.31859,20.98352 0.86709,2.57213 1.08966,2.75064 4.39442,3.52442 4.78245,1.11999 4.83199,3.2429 0.23696,10.15857 -1.80981,2.72379 -3.53272,5.15503 -3.82855,5.40245 -0.29585,0.24762 -9.46926,13.8216 -20.38529,30.16385 -10.91603,16.34282 -25.75539,38.52598 -32.97605,49.29939 -7.22093,10.77141 -14.65322,22.01562 -16.51608,24.98705 -12.7494,20.33403 -17.95912,27.03462 -18.72947,24.08868 -0.12918,-0.49399 -0.50735,-0.97928 -0.8404,-1.07842 -4.73406,-1.40931 -5.86552,-1.69271 -6.04422,-1.51403 -0.37326,0.37325 0.8729,1.05399 3.52527,1.92575 2.81085,0.92387 3.5227,1.84021 1.07222,1.38052 l -1.51653,-0.2845 -0.31888,2.3729 c -0.17538,1.3051 -0.41822,3.18334 -0.53967,4.17391 -0.72671,5.92711 -3.93851,14.80185 -5.90619,16.32022 -0.67422,0.52028 -2.35804,0.79419 -2.35804,0.38362 z m -75.31939,-9.89996 c 0.19801,-0.34308 1.42972,-1.77908 2.73714,-3.19108 4.4368,-4.79161 7.29081,-13.41465 6.63501,-20.04651 -0.48712,-4.92622 -1.97048,-15.67128 -3.00292,-21.75245 -1.04985,-6.18368 -0.86657,-9.37046 0.72209,-12.55494 0.84641,-1.69666 1.16214,-1.41412 -2.9044,-2.59923 -1.85715,-0.54121 -5.86468,-1.80393 -8.9054,-2.80602 -6.4609,-2.12919 -6.37212,-2.15527 -8.45207,2.4797 -1.75716,3.91559 -1.72581,7.70176 0.12937,15.6226 4.23148,18.06652 3.3984,28.06643 -2.98144,35.78537 -2.3648,2.86172 -2.44433,2.84837 4.24005,0.71142 7.3627,-2.35381 8.76622,-1.81434 8.76622,3.36947 0,0.95352 0.37538,2.11245 0.90042,2.77996 0.49523,0.6296 0.90042,1.5226 0.90042,1.98444 0,0.98526 0.69993,1.10958 1.21572,0.21591 z m 55.27316,-4.43022 c 1.00982,-3.40041 0.84536,-9.13908 -0.46162,-16.10657 -2.25756,-12.03489 -2.43631,-13.34592 -2.425,-17.78358 0.007,-2.75855 0.26272,-5.19971 0.66027,-6.3031 0.86384,-2.39785 0.87515,-2.35947 -0.80088,-2.71518 -0.80477,-0.17079 -4.34401,-1.19988 -7.86528,-2.28685 -7.82289,-2.41494 -7.07431,-2.44899 -8.51392,0.38732 -2.00064,3.94167 -1.92721,6.58433 0.52221,18.79649 2.56468,12.78692 2.94279,17.56651 1.68239,21.27277 -0.48417,1.4238 -0.83831,2.58874 -0.78698,2.58874 0.44399,0 6.95117,-2.8941 8.09094,-3.59858 2.51196,-1.55247 4.93051,0.35771 7.24871,5.7252 1.38806,3.2137 1.7011,3.21656 2.64934,0.0235 z m -23.7121,-2.03747 c 1.5626,-3.33426 1.5836,-10.96585 0.0516,-18.79649 -1.51237,-7.73067 -1.62463,-17.15756 -0.24397,-20.48466 0.21385,-0.51536 -0.38632,-0.87849 -2.53375,-1.53305 -1.54769,-0.47175 -5.51272,-1.73268 -8.81118,-2.80209 l -5.99697,-1.94437 -1.08865,1.22634 c -2.77592,3.12693 -3.01554,7.247 -0.89945,15.46537 2.87663,11.17263 3.14325,17.13839 1.00194,22.43918 -1.47784,3.65872 -1.76982,3.60689 4.23519,0.75142 5.10119,-2.42568 6.26874,-2.65807 6.26874,-1.24759 0,0.40917 0.39054,0.98784 0.86784,1.28594 0.4773,0.29808 1.8106,2.27149 2.96283,4.38525 2.48358,4.55622 2.6192,4.59689 4.18564,1.25463 z m 59.35401,-10.60847 c 0.40304,-0.78904 3.71084,-5.89187 7.35066,-11.33929 11.57527,-17.32279 26.13456,-38.98704 29.9548,-44.57134 23.47699,-34.31914 53.34872,-79.54628 53.34014,-80.75765 l -0.01,-1.18101 -0.89769,1.12554 c -0.49375,0.61905 -3.86578,5.58258 -7.49329,11.03029 -3.62751,5.4477 -8.70722,13.04494 -11.28831,16.88294 -2.5809,3.83798 -10.43092,15.58879 -17.44422,26.11249 -30.97716,46.48147 -55.43927,82.07497 -56.21822,81.79719 -0.9463,-0.3358 -0.42827,-1.42426 2.93277,-6.16193 1.84419,-2.59959 4.95084,-7.05627 6.90335,-9.90398 1.95272,-2.84759 5.50183,-8.0139 7.88675,-11.48047 2.38496,-3.46657 7.43801,-10.96271 11.22904,-16.65784 3.79103,-5.69513 7.32345,-10.96271 7.8501,-11.70556 0.52659,-0.74286 6.67883,-9.96098 13.67153,-20.48467 6.9927,-10.52369 15.91526,-23.79372 19.82801,-29.488 7.61813,-11.08899 18.35432,-26.98508 19.45199,-28.80069 2.18063,-3.60775 -0.54508,-1.91187 -2.95739,1.8399 -5.16162,8.02736 -26.34361,39.74307 -30.78527,46.09486 -2.51088,3.59057 -7.52363,10.98534 -11.13969,16.43276 -7.54024,11.35961 -23.72357,35.77391 -32.68107,49.29939 -9.37018,14.15062 -13.40435,20.01959 -13.87858,20.19084 -1.08636,0.39219 -5.44971,-6.01788 -6.40735,-9.41313 -0.14644,-0.5192 -0.62237,-0.65343 -1.82076,-0.5135 -1.94088,0.22658 -2.00411,0.66674 -0.55068,3.83341 0.58951,1.28442 1.28903,2.88093 1.55454,3.54789 0.43786,1.1 5.0273,3.06421 7.15936,3.06421 0.2525,0 0.71132,0.3039 1.01958,0.67533 0.80414,0.96892 -0.56622,0.89607 -4.12438,-0.2193 -2.82479,-0.88547 -4.36806,-1.14475 -3.87407,-0.65087 0.52249,0.52249 8.07119,2.3898 8.69434,2.15067 0.35602,-0.13662 0.77152,0.0753 0.92339,0.47106 0.35802,0.933 0.91216,0.56267 1.82139,-1.21735 z m -106.75474,-3.80019 c 1.22728,-2.43721 1.46201,-12.17578 0.45376,-18.82626 -0.41046,-2.70742 -0.82934,-7.75904 -0.93083,-11.2256 l -0.18451,-6.30311 -7.96751,-2.64461 c -7.59953,-2.52253 -7.9953,-2.60629 -8.57407,-1.81476 -1.78791,2.44513 -1.85015,8.49989 -0.14766,14.36398 2.00898,6.91996 2.13041,15.61744 0.27549,19.73065 -1.84832,4.09858 -1.85007,4.09801 5.271,1.62909 l 5.26759,-1.82629 1.11235,1.26351 c 0.61182,0.69492 1.77685,2.63098 2.58901,4.30249 1.72461,3.54904 1.7276,3.55047 2.83536,1.35075 z m 105.17968,-4.75667 c 1.64414,-2.52239 7.38503,-11.06925 12.7577,-18.99294 5.37268,-7.92371 16.60229,-24.63797 24.95469,-37.1428 16.1816,-24.22587 30.60486,-45.69966 36.13762,-53.8012 7.60697,-11.14112 13.07787,-20.03019 12.78977,-20.78077 -0.26781,-0.69793 -4.49779,5.37697 -12.88972,18.5124 -1.10134,1.72382 -4.80565,7.2951 -8.23183,12.38084 -3.4262,5.08572 -10.82096,16.19677 -16.43276,24.69149 -10.35301,15.671 -33.92394,51.09783 -46.08054,69.25398 -3.66818,5.47893 -6.66938,10.08813 -6.66938,10.24248 0,0.91156 1.01236,-0.29361 3.66474,-4.36263 z m -0.0955,-3.92793 c 2.33452,-3.45739 4.41102,-6.28591 4.61464,-6.28591 0.20357,0 0.37013,-0.19878 0.37013,-0.4417 0,-0.24294 4.30507,-6.82031 9.56722,-14.61658 11.72961,-17.37892 11.99766,-17.78071 18.10631,-27.13199 7.21005,-11.03773 22.22754,-33.51728 30.09225,-45.04673 18.26841,-26.77631 24.06578,-36.1233 22.40453,-36.1233 -0.22947,0 -0.48273,-0.33401 -0.56279,-0.7423 -0.0909,-0.46382 -1.15901,0.76026 -2.84685,3.26266 -1.48571,2.2028 -4.75583,6.87614 -7.26704,10.38509 -2.51114,3.50895 -7.06658,10.19522 -10.12335,14.85827 -8.91084,13.59392 -20.17996,30.3328 -22.22668,33.01613 -1.98073,2.59587 -15.2294,22.26648 -18.649,27.68813 -1.8466,2.92789 -18.64128,28.28751 -23.10758,34.89188 -1.08845,1.60951 -2.68994,4.04075 -3.55877,5.40246 -0.86889,1.36192 -1.94174,3.03329 -2.38407,3.71429 -0.44234,0.68093 -0.70752,1.23808 -0.58927,1.23808 0.49248,0 11.1394,-15.08279 17.79733,-25.21215 6.65047,-10.11817 21.78479,-32.8042 29.13289,-43.67213 4.10288,-6.06656 14.89033,-22.17312 23.97213,-35.79109 9.08209,-13.61912 16.77611,-25.03087 17.09799,-25.35962 0.32198,-0.32883 0.80309,-1.00461 1.06916,-1.50175 0.26606,-0.49715 0.58275,-0.80489 0.70374,-0.68389 0.31088,0.31088 -36.93088,56.98282 -47.68424,72.56733 -0.85452,1.23808 -5.10034,7.61985 -9.43519,14.18184 -4.33485,6.56199 -9.47901,14.34766 -11.43151,17.30161 -1.95258,2.95396 -3.9975,6.19572 -4.54447,7.20347 -0.54689,1.00783 -2.37027,3.80392 -4.05192,6.21348 -6.20431,8.88964 -11.38654,16.51579 -11.38654,16.75663 0,0.91938 1.19341,-0.55359 4.91991,-6.07228 z m -128.50773,3.04131 c 4.24493,-5.97664 4.34087,-11.8708 0.44076,-27.10823 -2.19452,-8.57405 -3.02727,-18.71286 -1.78174,-21.69403 0.37467,-0.89671 0.62793,-1.6762 0.56278,-1.73213 -0.46452,-0.39892 -16.94164,-5.60922 -17.74549,-5.61151 -2.55088,-0.007 -2.52107,14.07961 0.0538,25.43579 2.90097,12.79494 2.66896,24.01567 -0.57516,27.80068 -1.05832,1.23483 0.53547,1.03304 6.10493,-0.77298 l 4.8134,-1.56086 1.12885,0.99808 c 1.61662,1.4293 3.0433,3.02984 4.19712,4.70914 1.246,1.8133 1.17436,1.82518 2.80042,-0.46421 z m 126.09648,-8.19949 c 2.16723,-2.97141 9.30374,-13.50657 15.85886,-23.41112 21.00701,-31.74176 24.09557,-36.36386 27.97451,-41.87084 6.51645,-9.25019 8.82606,-12.64057 18.25037,-26.78777 5.03102,-7.55227 10.0297,-14.97338 11.10789,-16.49117 1.07841,-1.51784 3.48031,-4.91962 5.33746,-7.55942 1.85714,-2.63984 4.15329,-5.84749 5.10291,-7.12816 2.25425,-3.04072 3.10859,-4.71888 2.57178,-5.0505 -0.23429,-0.1448 -0.66727,0.19825 -0.96219,0.76232 -0.80139,1.53286 -8.2115,12.56871 -11.39914,16.97687 -5.86553,8.11127 -10.6434,14.91926 -15.34653,21.86671 -4.57484,6.75787 -7.0746,10.44408 -17.7074,26.1125 -5.43683,8.01161 -29.50804,44.12174 -31.85059,47.7816 -0.97199,1.51811 -4.31682,6.5829 -7.43314,11.25539 -7.97095,11.95156 -8.43602,13.04665 -1.5043,3.54274 z m -7.98813,0.3223 -0.53357,-4.54764 -2.05881,-0.44898 c -1.13232,-0.24694 -3.12234,-0.68394 -4.42248,-0.97111 -1.3,-0.28719 -2.36363,-0.70451 -2.36363,-0.92743 0,-0.54077 -0.0262,-0.54385 4.60148,0.54262 4.49579,1.05553 4.72661,0.97488 4.91132,-1.71661 0.16866,-2.45635 0.45949,-2.27746 -6.46205,-3.97517 -11.07239,-2.71566 -18.0459,-4.66848 -18.54132,-5.19197 -0.36622,-0.38712 -0.2617,-0.45625 0.40814,-0.27 8.12703,2.26001 25.0217,6.26903 25.28974,6.00127 0.13112,-0.13111 -0.64307,-0.46911 -1.72048,-0.75108 -1.96705,-0.51481 -11.89342,-3.40183 -27.39602,-7.9678 -4.58086,-1.34925 -9.74705,-2.85509 -11.48048,-3.34629 -1.73331,-0.49121 -8.01391,-2.48825 -13.95676,-4.43794 -5.94284,-1.94959 -14.75573,-4.68509 -19.5843,-6.07859 -4.82856,-1.39364 -16.37662,-5.03562 -25.66231,-8.09324 -9.2857,-3.05761 -19.82085,-6.49669 -23.41114,-7.64218 -22.21608,-7.08835 -22.41683,-7.17541 -20.26587,-8.79801 1.33164,-1.00446 2.21356,-0.81502 13.51259,2.90297 15.39149,5.06455 35.13816,11.36536 41.6446,13.28779 3.46657,1.02442 8.53167,2.54902 11.25539,3.3881 2.72379,0.839 9.10556,2.76675 14.18184,4.28388 5.07627,1.51713 12.26829,3.73661 15.98257,4.93223 3.71428,1.19559 9.7923,3.01982 13.50657,4.05392 3.71428,1.03406 9.58954,2.68837 13.0561,3.67619 3.46657,0.98782 8.83553,2.50636 11.93067,3.37436 3.09513,0.86811 6.52304,1.86759 7.61756,2.22103 1.96364,0.63418 2.85082,0.54483 2.03217,-0.20467 -0.23111,-0.21158 -3.15528,-1.13635 -6.49813,-2.05503 -3.34285,-0.91869 -9.42086,-2.68842 -13.50657,-3.93279 -4.08571,-1.24432 -9.65712,-2.8575 -12.38084,-3.58483 -2.72379,-0.7273 -6.16794,-1.70101 -7.65365,-2.16373 -1.4857,-0.46272 -5.23378,-1.58866 -8.32892,-2.50209 -10.60388,-3.12921 -28.5882,-8.69633 -31.06592,-9.61617 -1.3619,-0.50582 -9.16198,-2.96513 -17.33339,-5.46546 -18.65302,-5.70716 -28.76347,-8.88707 -37.36904,-11.75396 -3.71427,-1.2374 -7.30884,-2.38991 -7.98812,-2.56116 l -1.23488,-0.31132 1.23488,-1.85067 c 0.67916,-1.01786 3.86862,-4.94684 7.08776,-8.73099 15.89036,-18.68021 22.31116,-26.27287 24.96958,-29.52809 1.6,-1.95886 4.25238,-5.08115 5.89446,-6.93829 1.64192,-1.85713 5.29649,-6.13356 8.12129,-9.50277 2.82471,-3.36948 8.38219,-9.85243 12.34991,-14.40693 3.96771,-4.55421 9.21524,-10.71184 11.66146,-13.68326 2.44612,-2.97143 5.40303,-6.41566 6.57115,-7.65366 1.16801,-1.23808 3.08655,-3.46656 4.26355,-4.95227 2.1584,-2.7248 9.62677,-11.64228 16.14179,-19.27416 l 3.53157,-4.13697 -2.3985,-0.53764 c -2.00313,-0.44901 -2.51692,-0.43045 -3.1169,0.11255 -0.39514,0.3576 -0.91537,0.65019 -1.15606,0.65019 -0.24069,0 -0.88055,0.91168 -1.42192,2.02596 -0.54135,1.11428 -1.17654,2.02596 -1.41153,2.02596 -0.235,0 -0.88272,0.81038 -1.4394,1.80086 -0.5567,0.99048 -1.2281,1.80242 -1.49202,1.80433 -0.26392,0.002 -0.94178,0.8123 -1.50631,1.80087 -0.56452,0.98857 -1.3749,1.80686 -1.80085,1.81839 -0.45231,0.0122 -1.15817,0.80818 -1.69689,1.91342 -0.50735,1.04082 -1.31773,2.07106 -1.80087,2.28938 -0.48312,0.21836 -1.1823,1.02875 -1.55373,1.80087 -0.37142,0.77213 -1.13963,1.60645 -1.70708,1.85408 -0.56747,0.24763 -1.14174,0.88685 -1.27617,1.42051 -0.25515,1.01287 -2.41379,3.32338 -2.4267,2.59736 -0.004,-0.22888 -0.46379,0.39425 -1.02159,1.3847 -0.5578,0.99049 -1.44419,1.9914 -1.96974,2.22428 -0.52556,0.23287 -1.29914,1.20214 -1.71908,2.15394 -0.41995,0.95178 -1.27076,2.0629 -1.89073,2.46912 -0.61998,0.40622 -1.31377,1.22926 -1.54178,1.82901 -0.22802,0.59973 -0.81732,1.19576 -1.3096,1.32449 -0.49225,0.12872 -0.89501,0.49877 -0.89501,0.82232 0,0.84882 -2.21671,3.3586 -2.96655,3.3586 -0.34941,0 -0.63529,0.32392 -0.63529,0.71981 0,0.39588 -0.5777,1.25945 -1.2838,1.91902 -0.70608,0.65958 -1.63513,1.87865 -2.06453,2.70905 -0.42942,0.8304 -1.16187,1.60948 -1.62769,1.7313 -0.46582,0.12181 -0.97891,0.65546 -1.1402,1.18585 -0.38403,1.2628 -1.55702,2.58115 -2.03418,2.28625 -0.20702,-0.12796 -0.6761,0.48459 -1.0424,1.36124 -0.36628,0.87665 -0.92957,1.59912 -1.25171,1.60554 -0.32218,0.006 -0.95699,0.81677 -1.41072,1.80087 -0.45373,0.9841 -1.0615,1.79362 -1.35066,1.79898 -0.28912,0.005 -0.82956,0.66381 -1.20099,1.4632 -0.4062,0.87424 -0.98381,1.42944 -1.44946,1.39321 -0.43045,-0.0335 -0.9064,0.36627 -1.07205,0.90042 -0.48715,1.57091 -2.0415,3.5098 -2.63203,3.28329 -0.31232,-0.11986 -0.77648,0.41725 -1.07568,1.24466 -0.51894,1.43512 -2.75756,3.96085 -2.79365,3.15184 -0.01,-0.22887 -0.46604,0.49554 -1.01299,1.60983 -0.54694,1.11428 -1.29831,2.02595 -1.66973,2.02595 -0.37143,0 -1.02826,0.77829 -1.45966,1.72954 -0.43136,0.95125 -1.19112,1.83589 -1.68829,1.96593 -0.49721,0.13002 -0.904,0.50113 -0.904,0.82467 0,0.98688 -2.34108,3.4912 -2.70827,2.89725 -0.19849,-0.32113 -0.44812,-0.0279 -0.64389,0.75638 -0.4401,1.76306 -1.63972,3.06937 -2.11636,2.30448 -0.23707,-0.38042 -0.45765,-0.0754 -0.65542,0.90595 -0.16396,0.81365 -0.69017,1.75399 -1.16939,2.08962 -0.47922,0.33566 -1.23267,1.29071 -1.67432,2.12238 -0.44167,0.83164 -1.33968,1.77638 -1.9956,2.09941 -0.65591,0.32303 -1.19355,0.82951 -1.19479,1.12554 -0.005,1.1874 -2.19757,3.28414 -2.68152,2.56417 -0.39196,-0.58305 -0.45491,-0.5706 -0.46086,0.0914 -0.011,1.22447 -0.9806,3.02268 -1.76384,3.27125 -0.39591,0.12566 -1.00168,0.86511 -1.34611,1.64322 -0.34442,0.7781 -0.97273,1.50535 -1.39622,1.61612 -0.42348,0.11075 -1.10062,0.89466 -1.5047,1.74202 -0.40407,0.84739 -1.04185,1.54067 -1.41729,1.54067 -0.37544,0 -0.6826,0.28918 -0.6826,0.64265 0,0.35344 -0.50648,1.04106 -1.12554,1.52798 -0.61906,0.48696 -1.12554,1.09473 -1.12554,1.35065 0,0.25591 -0.49801,0.85704 -1.10667,1.3358 -0.60865,0.47876 -1.35028,1.40516 -1.64802,2.05863 -0.29775,0.65348 -0.78816,1.18814 -1.0898,1.18814 -0.30164,0 -0.8002,0.6078 -1.1079,1.35066 -0.30771,0.74286 -0.83876,1.35066 -1.18015,1.35066 -0.34139,0 -0.62069,0.31146 -0.62069,0.69211 0,0.38067 -0.90268,1.56941 -2.00597,2.64169 -4.98463,4.84432 -4.00723,18.80507 2.28032,32.57225 0.62756,1.37397 2.42694,2.12501 2.42694,1.01299 0,-0.24761 -0.30391,-0.45021 -0.67533,-0.45021 -0.37142,0 -0.67533,-0.27909 -0.67533,-0.62019 0,-0.34111 -0.3039,-0.87242 -0.67533,-1.18068 -0.37143,-0.30824 -0.67533,-1.01733 -0.67533,-1.57574 0,-0.5584 -0.28298,-1.25014 -0.62884,-1.53717 -0.34586,-0.28703 -0.5231,-0.92631 -0.39383,-1.42059 0.12925,-0.49429 -0.0866,-1.25404 -0.47965,-1.68835 -0.41044,-0.45353 -0.60937,-1.19218 -0.46736,-1.73527 0.136,-0.52005 0.0263,-1.08215 -0.24382,-1.24908 -0.2731,-0.16878 -0.36814,-0.79343 -0.21405,-1.4073 0.15236,-0.60709 0.0543,-1.3721 -0.2178,-1.70003 -0.52785,-0.63601 -1.59141,-7.27564 -1.25538,-7.83693 0.11003,-0.18382 0.0422,-1.3472 -0.15077,-2.58527 -0.40069,-2.5711 0.0593,-3.82683 1.40189,-3.82683 0.86033,0 0.9012,0.18374 0.62597,2.81384 -0.16197,1.54761 -0.0717,4.5817 0.20059,6.7424 0.45651,3.62264 0.98121,5.78305 3.03701,12.50426 l 0.75734,2.4762 0.59082,-5.17737 c 0.32495,-2.84759 0.77207,-5.70459 0.99357,-6.34864 0.3713,-1.07952 0.24801,-1.24631 -1.57639,-2.13266 -1.5702,-0.76288 -2.65534,-1.8737 -1.83035,-1.8737 1.4576,0 39.45384,12.68612 38.72645,12.92925 -0.25625,0.0854 -3.283,-0.57948 -6.72637,-1.47755 -8.98529,-2.34357 -8.28654,-2.24543 -8.28654,-1.16374 0,0.79097 0.61904,1.12124 3.93937,2.10182 4.53646,1.33965 6.06972,1.9413 5.06339,1.9866 -0.58111,0.0262 -4.48978,-0.99182 -7.60639,-1.98096 -1.50418,-0.47742 -1.16385,2.22951 1.59719,12.70415 0.72356,2.7449 1.50851,3.73289 1.50851,1.89895 0,-0.50319 0.29675,-1.62509 0.65941,-2.49309 0.63862,-1.52847 0.62444,-1.59414 -0.45021,-2.08378 -1.32706,-0.60465 -1.45055,-1.26148 -0.23714,-1.26148 0.47984,0 4.78503,1.33193 9.5672,2.95997 4.78188,1.62793 9.01593,3.06106 9.40855,3.18477 0.51759,0.163 0.92848,-0.33664 1.49348,-1.8161 0.4287,-1.12253 1.2723,-2.76724 1.87468,-3.655 1.35253,-1.99302 1.37031,-1.85659 -0.28522,-2.1877 -0.75927,-0.15185 -1.26137,-0.46886 -1.11578,-0.70442 0.31433,-0.5086 0.9778,-0.3176 15.46681,4.45312 12.29464,4.04819 13.80755,4.70943 9.87792,4.31824 l -2.58874,-0.25768 v 1.60553 c 0,2.2686 0.95226,7.99873 1.41415,8.50962 0.23363,0.2584 0.38671,0.15964 0.38671,-0.24952 0,-5.03532 2.63646,-5.42651 13.21591,-1.95998 4.94426,1.62002 9.28512,2.88638 9.64654,2.81384 1.14452,-0.22934 2.56373,-4.4895 1.70484,-5.11752 -0.68086,-0.49783 -0.98103,-1.54227 -0.44325,-1.54227 0.14431,0 3.03127,0.90609 6.41565,2.01353 3.38437,1.10743 7.97638,2.54567 10.20496,3.19594 10.44437,3.04817 16.93161,5.32829 12.83102,4.51012 -0.86666,-0.17297 -2.48746,-0.42618 -3.60174,-0.56274 -1.11429,-0.13654 -2.88694,-0.40318 -3.93938,-0.5925 -2.34646,-0.42218 -2.37744,-0.21647 -0.83237,5.5276 1.3146,4.88727 0.20569,4.12522 9.36331,6.43426 4.28416,1.08013 9.20752,2.34321 10.94094,2.80686 3.84,1.02707 3.4826,1.51293 2.85032,-3.87667 z m -8.40767,-0.11386 c -6.95232,-1.72962 -8.37474,-2.23442 -6.29623,-2.23442 1.21611,0 13.77147,3.34343 14.21277,3.78473 0.46601,0.46602 -0.83739,0.21076 -7.91654,-1.55046 z m 1.05523,-2.23442 c -0.32185,-0.52076 0.85004,-0.52076 2.4762,0 1.01098,0.32378 0.95643,0.36502 -0.53622,0.40534 -0.91396,0.0247 -1.78694,-0.15771 -1.93998,-0.40534 z m -13.9831,-2.50846 c -0.82577,-0.66863 -0.78785,-0.69297 0.68776,-0.44177 1.9669,0.33483 2.89925,1.1494 1.31569,1.1494 -0.62124,0 -1.5228,-0.31842 -2.00345,-0.70763 z m -37.45207,-15.06618 c -0.55715,-0.22395 -1.013,-0.51498 -1.013,-0.64677 0,-0.49451 1.66166,-0.21473 2.50269,0.42139 1.01995,0.77147 0.18363,0.898 -1.48969,0.22541 z m 9.79229,-1.67231 c -1.11429,-0.39313 -1.75731,-0.80436 -1.42895,-0.91382 0.73557,-0.24519 4.51384,0.77766 4.84374,1.31125 0.35914,0.58111 -1.13373,0.40737 -3.41474,-0.39743 z m -13.95675,-4.84173 c -0.86666,-0.33375 -1.27186,-0.61311 -0.90042,-0.62078 0.37142,-0.008 1.2831,0.26436 2.02596,0.60451 1.73875,0.79615 0.93,0.80783 -1.12554,0.0162 z m 4.72718,-0.67533 c -1.23809,-0.45686 -1.94717,-0.83066 -1.57575,-0.83066 0.37143,0 1.68829,0.37377 2.92646,0.83066 1.23809,0.45685 1.94718,0.83063 1.57575,0.83063 -0.37142,0 -1.68829,-0.37378 -2.92646,-0.83063 z m -41.30668,-1.66101 c -0.43334,-0.11324 -0.78787,-0.39361 -0.78787,-0.62308 0,-0.64286 1.52708,-0.49412 2.50268,0.24379 0.95609,0.72316 0.22218,0.88547 -1.71481,0.3793 z m 30.728,-1.54258 c -16.08652,-5.08744 -30.67931,-9.93748 -30.48458,-10.13165 0.12072,-0.12071 4.54762,1.19469 9.83754,2.92302 5.28991,1.72845 13.6698,4.45428 18.62209,6.05712 4.95228,1.60298 8.70034,2.91815 8.32892,2.92274 -0.37144,0.004 -3.20769,-0.79255 -6.30311,-1.77143 z m -42.99629,-2.64922 c -0.15304,-0.24762 0.12695,-0.45021 0.62217,-0.45021 0.49524,0 1.02566,0.2026 1.1787,0.45021 0.15303,0.24761 -0.12695,0.45021 -0.62218,0.45021 -0.49523,0 -1.02565,-0.2026 -1.17869,-0.45021 z m 8.87561,-0.50786 c -0.81359,-0.23465 -1.36624,-0.60947 -1.22815,-0.83295 0.27959,-0.45239 2.78147,0.282 3.18507,0.9349 0.297,0.48059 0.0112,0.4657 -1.95687,-0.10196 z m 1.25415,-7.59608 c -0.82299,-0.53187 -0.11215,-0.53187 1.12554,0 0.59371,0.25512 0.6704,0.39536 0.22511,0.41169 -0.37144,0.0136 -0.97924,-0.17165 -1.35066,-0.41169 z m -24.31092,-8.32778 c -1.60951,-0.58037 -2.71262,-1.07104 -2.45131,-1.09037 0.2613,-0.0194 1.88205,0.45625 3.60173,1.05686 1.71965,0.60062 2.82278,1.09128 2.45134,1.09038 -0.37142,-8.7e-4 -1.99219,-0.4765 -3.60173,-1.05687 z m -12.60621,-1.85571 c -4.62409,-1.49479 -4.66275,-1.51052 -4.38783,-1.78529 0.3684,-0.36839 7.98956,2.05703 7.98956,2.54264 0,0.23263 -0.0507,0.40299 -0.11256,0.37858 -0.0619,-0.0243 -1.63201,-0.53558 -3.48918,-1.13593 z m 7.42856,0.2799 c -0.56757,-0.2439 -0.65078,-0.38693 -0.22511,-0.38693 0.37143,0 1.08052,0.17411 1.57575,0.38693 0.56757,0.24389 0.65078,0.38691 0.22511,0.38691 -0.37143,0 -1.08053,-0.17411 -1.57575,-0.38691 z m -13.73138,-11.14857 c 0,-0.43566 0.39073,-1.03614 0.86829,-1.33439 0.47755,-0.29824 1.9769,-1.91711 3.33196,-3.59745 5.46776,-6.78077 10.19638,-12.46702 14.21392,-17.09198 2.32771,-2.67977 5.26529,-6.08087 6.52821,-7.55799 1.26274,-1.4771 4.42305,-5.08373 7.02305,-8.01505 2.59999,-2.93134 6.40763,-7.39534 8.46151,-9.92031 2.05385,-2.52505 6.53621,-7.73125 9.96096,-11.56925 6.14704,-6.88902 10.16143,-11.63941 25.87167,-30.61345 17.45682,-21.08491 24.74935,-29.71423 25.11075,-29.71423 0.71027,0 0.37993,1.21738 -0.63465,2.33893 -2.54399,2.81223 -3.88984,4.40902 -6.18627,7.34064 -2.30312,2.93993 -14.64148,17.82454 -17.7495,21.41252 -0.76371,0.88164 -3.00923,3.59257 -4.99036,6.02447 -1.98095,2.43189 -4.06653,4.95199 -4.63498,5.60034 -0.56823,0.64838 -2.18902,2.5933 -3.60174,4.32196 -3.53329,4.32369 -16.34797,19.51357 -17.44136,20.67396 -3.84315,4.08084 -33.77502,39.65716 -41.60738,49.45404 -2.47197,3.09571 -4.52213,4.11234 -4.52213,2.24804 z m 150.70465,60.29331 c 4.76356,-6.86897 8.48443,-12.36307 19.25813,-28.43729 14.03637,-20.94171 17.06536,-25.43092 25.21414,-37.36902 11.47275,-16.80561 23.5675,-34.16449 28.85797,-41.41837 3.8778,-5.31683 13.23625,-18.96315 14.78266,-21.55627 0.23169,-0.38846 0.18596,-0.55712 -0.12204,-0.45021 -0.27091,0.0941 -3.15987,4.1215 -6.41995,8.95007 -3.26009,4.82856 -7.77708,11.38682 -10.03773,14.5736 -2.26058,3.18706 -5.13526,7.23898 -6.38786,9.0042 -3.95799,5.57771 -6.94402,9.84871 -9.48387,13.5647 -1.35402,1.98094 -3.47716,5.01987 -4.71831,6.75328 -1.241,1.73335 -8.55258,12.57214 -16.24776,24.08641 -7.69545,11.51426 -15.85313,23.56863 -18.12837,26.78776 -5.61924,7.95006 -8.0371,11.52372 -8.57234,12.66951 -0.44637,0.9558 -4.35862,6.71806 -9.34183,13.75944 -1.4238,2.01181 -2.58873,3.8609 -2.58873,4.10947 0,0.63765 0.0553,0.56705 3.93507,-5.02759 z m 0.73507,-5.41018 c 2.19719,-3.13151 4.14269,-5.79508 4.32311,-5.91879 0.18055,-0.12381 2.08286,-2.85888 4.22747,-6.07802 2.14449,-3.21913 6.07429,-8.93947 8.73299,-12.71217 6.83892,-9.70438 9.84384,-14.12629 15.53096,-22.85499 5.79336,-8.89164 26.27516,-38.53456 32.97318,-47.72147 9.39537,-12.88772 20.62442,-29.52236 21.04481,-31.17761 0.43263,-1.70269 -0.23998,-1.12745 -2.38281,2.03793 -7.50788,11.09044 -14.48969,21.2301 -34.7802,50.51076 -12.60678,18.19253 -23.0944,33.53161 -23.30603,34.09004 -0.37461,0.9853 -2.70782,4.584 -7.3584,11.34988 -1.25898,1.83157 -4.37838,6.49126 -6.93198,10.35502 -2.5536,3.86377 -6.29108,9.25334 -8.30573,11.97706 -4.43622,5.99811 -8.89651,12.60535 -8.86014,13.12568 0.0146,0.20936 0.26781,0.005 0.56278,-0.45372 0.29497,-0.45889 2.33399,-3.39669 4.53131,-6.5282 z m -1.88328,-0.96649 c 3.01037,-4.09888 7.68143,-10.595 11.33041,-15.75748 3.14554,-4.44998 39.38225,-56.84822 41.44414,-59.92962 9.68519,-14.46793 22.2032,-33.00754 30.59913,-45.31592 2.91644,-4.27586 5.23063,-7.99043 5.14272,-8.25418 -0.0879,-0.26375 -3.99178,5.2607 -8.67544,12.2766 -4.68365,7.01588 -9.75592,14.47824 -11.27199,16.5831 -1.51592,2.10476 -5.97377,8.5878 -9.90598,14.40692 -3.9325,5.81914 -15.67415,22.93833 -26.09275,38.04201 -10.41859,15.10484 -19.91649,28.94962 -21.10638,30.76523 -1.18982,1.81588 -4.98435,7.15965 -8.43201,11.87538 -3.44766,4.71545 -6.26875,8.79114 -6.26875,9.05689 0,0.61826 0.19987,0.38681 3.23718,-3.74893 z m -1.79489,-1.35349 c 0.98688,-1.73434 0.69406,-1.73279 -0.54182,0.002 -0.52896,0.74286 -0.796,1.34937 -0.59342,1.3478 0.20257,-10e-4 0.71345,-0.60935 1.13524,-1.35066 z m 7.56202,-10.59614 c 5.44225,-7.615 13.50657,-19.14902 17.92876,-25.64343 1.18033,-1.73333 4.78447,-6.89962 8.00905,-11.48048 3.22457,-4.58084 6.61611,-9.40082 7.5368,-10.71069 0.92064,-1.30988 3.7581,-5.46317 6.30512,-9.22928 8.77938,-12.98079 14.6452,-21.49872 22.38819,-32.50925 9.58782,-13.63487 20.21949,-29.35341 20.63129,-30.50176 0.76465,-2.13412 -0.10596,-1.35684 -2.27184,2.02824 -1.14781,1.79398 -3.96599,5.99698 -6.26273,9.33954 -2.29672,3.34286 -6.03333,8.8129 -8.30343,12.15575 -2.27012,3.34285 -5.59576,8.20521 -7.39018,10.8052 -1.79454,2.6 -5.68912,8.27279 -8.65482,12.60593 -2.96541,4.33341 -8.30829,12.13341 -11.87309,17.3334 -3.56451,5.19998 -7.99959,11.68293 -9.85587,14.40693 -1.85603,2.72379 -4.95629,7.2069 -6.88931,9.9624 -4.98836,7.11068 -9.64223,13.7832 -17.54503,25.15428 -3.78587,5.44772 -7.59925,10.86707 -8.47412,12.04321 -0.87484,1.1762 -1.43671,2.13325 -1.24859,2.12685 0.18812,-0.006 2.87463,-3.55506 5.96976,-7.8859 z m -7.92771,5.64244 c -0.24985,-0.24986 -6.01387,-2.06208 -12.80868,-4.0273 -6.79481,-1.96509 -13.36739,-3.88582 -14.6054,-4.26813 -2.46422,-0.76103 -3.78272,-0.90056 -2.08394,-0.22052 0.58715,0.23505 4.53789,1.45681 8.7791,2.71503 4.24149,1.25821 10.44666,3.15986 13.78951,4.22631 6.42138,2.04804 7.69116,2.33662 6.92912,1.57458 z m 5.82743,-5.98696 c 1.93999,-2.77164 6.02963,-8.68603 9.08811,-13.14316 3.05848,-4.45713 6.94143,-10.07123 8.62846,-12.47591 1.68727,-2.40464 5.29622,-7.60641 8.02021,-11.55951 7.71808,-11.20126 10.17146,-14.74515 14.00057,-20.22292 11.43666,-16.36087 19.25956,-27.78894 29.11285,-42.53236 4.76298,-7.12587 11.25681,-16.76839 14.43099,-21.4277 5.45859,-8.01248 5.7504,-8.5523 5.3847,-9.96355 l -0.38669,-1.49227 -1.37812,1.75992 c -1.54012,1.96681 -6.54022,9.25248 -12.17665,17.74262 -2.05485,3.09514 -5.26156,7.85612 -7.12586,10.58012 -1.86436,2.72379 -6.40907,9.4094 -10.09929,14.85712 -3.69022,5.4477 -8.33608,12.23449 -10.32381,15.0822 -1.98781,2.84759 -5.91506,8.52022 -8.72726,12.60593 -2.81214,4.08571 -6.41766,9.22469 -8.01248,11.41975 -3.54017,4.87296 -6.01616,8.48414 -21.49585,31.34943 -6.59664,9.74448 -12.7073,18.41418 -13.18842,18.71144 -0.72773,0.44978 -0.34086,3.84171 0.4304,3.77385 0.15921,-0.0141 1.87675,-2.29329 3.8168,-5.06483 z m -147.37985,-7.17655 c -0.0148,-1.21495 -0.81488,-1.9476 -1.43754,-1.31658 -0.47598,0.48238 -0.42291,0.70637 0.29242,1.23434 1.06649,0.78713 1.15386,0.79339 1.14516,0.0823 z m 90.89533,-1.89397 c -0.39314,-0.39313 -26.63313,-8.38132 -27.06184,-8.23842 -0.23728,0.0791 1.46189,0.71482 3.77585,1.41269 2.31407,0.6979 8.25933,2.54392 13.21161,4.10231 8.39593,2.64198 10.58441,3.23346 10.07438,2.72354 z m -35.51047,-10.59872 c 0,-0.24762 -0.15194,-0.41804 -0.33766,-0.37873 -0.18572,0.0393 -0.64156,-0.0605 -1.01299,-0.22195 -0.37143,-0.16138 -3.30907,-1.08304 -6.5282,-2.04813 -3.21914,-0.96508 -11.29433,-3.51066 -17.94538,-5.65647 -6.65076,-2.14603 -12.1924,-3.80191 -12.31468,-3.67962 -0.1222,0.12219 4.00266,1.56787 9.16627,3.21254 5.16363,1.64474 13.64289,4.37152 18.84288,6.05941 10.65973,3.46027 10.12993,3.31851 10.12993,2.713 z"
         id="path3428"
         style="stroke-width:0.28637463" />
      <g
         aria-label="_"
         style="font-style:normal;font-variant:normal;font-weight:normal;font-stretch:normal;font-size:206.0954895px;line-height:1.25;font-family:'Calling Heart';-inkscape-font-specification:'Calling Heart';font-variant-ligatures:normal;font-variant-position:normal;font-variant-caps:normal;font-variant-numeric:normal;font-variant-alternates:normal;font-feature-settings:normal;text-indent:0;text-align:start;text-decoration:none;text-decoration-line:none;text-decoration-style:solid;text-decoration-color:#000000;letter-spacing:0px;word-spacing:0px;text-transform:none;writing-mode:lr-tb;direction:ltr;text-orientation:mixed;dominant-baseline:auto;baseline-shift:baseline;text-anchor:start;white-space:normal;shape-padding:0;opacity:1;vector-effect:none;fill:#000000;fill-opacity:1;stroke:none;stroke-width:5.15238714;stroke-linecap:butt;stroke-linejoin:miter;stroke-miterlimit:4;stroke-dasharray:none;stroke-dashoffset:0;stroke-opacity:1"
         id="text130"
         transform="translate(-82.776786,-9.4494048)">
        <path
           d="m -911.54594,528.34337 c 8.20399,0.3447 16.47882,0.60085 24.82449,0.76844 3.76044,0.0755 380.40877,0.13305 384.19798,0.17261 4.16833,0.0435 8.35406,0.0653 12.55721,0.0653 h 4.3272 c 3.82403,0 7.11136,-0.0671 9.86199,-0.20126 0.60379,0.60379 0.90569,1.50948 0.90569,2.71707 0,3.22025 -2.31455,5.29999 -6.94365,6.23922 -0.46601,0.34951 -7.17835,0.62315 -20.13703,0.82092 -1.966,0.03 -376.9493,0.0583 -379.20285,0.0848 -2.14343,0 -4.19021,-0.0121 -6.14035,-0.0364 -13.24844,-0.16508 -22.03643,-0.8909 -26.36397,-2.17747 -1.07341,-0.40253 -1.61012,-1.03987 -1.61012,-1.91202 0,-2.8848 1.03987,-5.03163 3.11961,-6.44048 z"
           style="font-style:normal;font-variant:normal;font-weight:normal;font-stretch:normal;font-size:206.0954895px;line-height:1.25;font-family:'Calling Heart';-inkscape-font-specification:'Calling Heart';font-variant-ligatures:normal;font-variant-position:normal;font-variant-caps:normal;font-variant-numeric:normal;font-variant-alternates:normal;font-feature-settings:normal;text-indent:0;text-align:start;text-decoration:none;text-decoration-line:none;text-decoration-style:solid;text-decoration-color:#000000;letter-spacing:0px;word-spacing:0px;text-transform:none;writing-mode:lr-tb;direction:ltr;text-orientation:mixed;dominant-baseline:auto;text-anchor:start;white-space:normal;shape-padding:0;vector-effect:none;fill:#000000;fill-opacity:1;stroke:none;stroke-width:5.15238714;stroke-linecap:butt;stroke-linejoin:miter;stroke-miterlimit:4;stroke-dasharray:none;stroke-dashoffset:0;stroke-opacity:1"
           id="path132" />
      </g>
    </g>
  </g>
</svg>
