<?xml version="1.0" standalone="no"?>
<!DOCTYPE svg PUBLIC "-//W3C//DTD SVG 20010904//EN"
 "http://www.w3.org/TR/2001/REC-SVG-20010904/DTD/svg10.dtd">
<svg version="1.0" xmlns="http://www.w3.org/2000/svg"
 width="700.000000pt" height="700.000000pt" viewBox="0 0 700.000000 700.000000"
 preserveAspectRatio="xMidYMid meet">
<metadata>
Created by potrace 1.14, written by Peter Selinger 2001-2017
</metadata>
<g transform="translate(0.000000,700.000000) scale(0.100000,-0.100000)"
fill="#000000" stroke="none">
<path d="M3278 6996 c-1 -2 -39 -6 -83 -10 -133 -10 -220 -23 -435 -65 -154
-31 -472 -130 -597 -187 -28 -13 -54 -24 -58 -24 -13 0 -287 -140 -380 -194
-88 -52 -251 -158 -295 -193 -8 -6 -51 -40 -95 -74 -411 -319 -772 -772 -998
-1251 -122 -260 -225 -572 -273 -833 -9 -49 -17 -97 -19 -105 -11 -59 -20
-136 -31 -255 -16 -165 -9 -608 10 -712 2 -10 7 -43 10 -74 4 -31 9 -67 11
-80 3 -13 7 -37 9 -54 20 -145 116 -479 192 -672 238 -601 668 -1161 1174
-1528 30 -22 57 -43 58 -47 2 -5 8 -8 13 -8 6 0 38 -19 72 -43 60 -42 138 -90
222 -138 52 -29 312 -159 320 -159 3 0 24 -9 48 -19 192 -87 581 -198 784
-225 22 -3 52 -8 65 -10 179 -41 744 -41 985 -2 21 4 52 8 68 10 204 26 555
127 809 233 122 52 338 160 394 198 20 14 40 25 45 25 4 0 13 5 20 10 7 6 64
44 127 86 239 158 471 360 660 573 36 41 70 79 75 85 25 26 146 188 197 261
298 430 524 1010 583 1500 4 28 8 61 11 75 19 113 26 541 11 715 -7 81 -23
206 -31 252 -2 10 -11 59 -21 108 -100 538 -352 1084 -694 1510 -148 184 -312
354 -461 479 -47 39 -87 74 -90 77 -13 16 -231 171 -299 214 -211 131 -415
236 -601 308 -107 42 -318 113 -360 122 -8 2 -42 10 -75 19 -71 18 -196 45
-245 52 -19 3 -60 9 -91 15 -31 5 -81 12 -110 15 -30 3 -67 8 -84 10 -33 6
-541 14 -547 10z m1068 -1087 c108 -23 140 -33 224 -72 253 -115 483 -369 545
-602 15 -56 21 -221 11 -285 -3 -14 -7 -43 -10 -65 -35 -266 -140 -540 -304
-795 -95 -147 -235 -296 -317 -336 -89 -44 -148 -54 -290 -50 -102 3 -149 9
-216 29 -183 55 -339 152 -339 212 0 30 33 68 205 241 225 226 314 328 422
489 107 159 162 273 201 417 31 114 32 178 2 208 -17 17 -30 19 -97 15 -136
-7 -258 -64 -421 -195 -98 -78 -214 -194 -287 -285 -22 -27 -43 -52 -46 -55
-3 -3 -36 -45 -74 -95 -206 -271 -415 -643 -568 -1015 -141 -340 -246 -700
-281 -960 -19 -141 -15 -413 8 -495 52 -190 157 -302 317 -336 50 -11 187 -8
254 6 39 7 146 43 163 54 7 4 24 46 36 92 63 226 158 435 337 746 67 115 84
169 53 160 -28 -9 -247 -69 -259 -72 -5 -1 -30 -7 -55 -14 -58 -17 -208 -22
-257 -10 -147 39 -214 133 -228 323 -5 67 -3 92 10 119 24 51 53 60 195 62
112 2 231 10 300 20 14 2 45 7 70 10 70 10 92 13 290 50 312 56 339 60 490 60
144 0 210 -19 269 -78 69 -68 68 -112 -7 -257 -156 -304 -272 -533 -296 -590
-16 -36 -37 -83 -47 -105 -73 -164 -153 -403 -191 -570 -25 -110 -30 -157 -33
-300 -4 -155 -2 -178 20 -260 13 -49 35 -114 49 -142 14 -29 26 -55 26 -59 0
-3 -21 -15 -47 -27 -41 -18 -70 -21 -193 -23 -266 -5 -440 60 -501 186 -12 25
-23 47 -25 49 -1 1 -49 -15 -106 -37 -244 -95 -436 -117 -660 -77 -156 29
-316 115 -436 236 -139 139 -271 395 -323 624 -6 28 -13 59 -15 70 -9 41 -33
212 -39 275 -7 77 -7 371 0 450 5 57 32 260 39 295 2 11 12 56 21 100 9 44 18
87 20 95 2 8 10 42 19 75 9 33 19 70 21 81 9 43 113 351 148 439 183 463 427
894 675 1194 181 218 311 346 493 488 194 151 455 273 639 298 25 4 46 8 48
10 12 12 271 0 348 -16z"/>
</g>
</svg>
