<?xml version="1.0" standalone="no"?>
<!DOCTYPE svg PUBLIC "-//W3C//DTD SVG 20010904//EN"
 "http://www.w3.org/TR/2001/REC-SVG-20010904/DTD/svg10.dtd">
<svg version="1.0" xmlns="http://www.w3.org/2000/svg"
 width="700.000000pt" height="700.000000pt" viewBox="0 0 700.000000 700.000000"
 preserveAspectRatio="xMidYMid meet">
<metadata>
Created by potrace 1.14, written by Peter Selinger 2001-2017
</metadata>
<g transform="translate(0.000000,700.000000) scale(0.100000,-0.100000)"
fill="#000000" stroke="none">
<path d="M3278 6996 c-1 -2 -39 -6 -83 -10 -133 -10 -220 -23 -435 -65 -154
-31 -472 -130 -597 -187 -28 -13 -54 -24 -58 -24 -13 0 -287 -140 -380 -194
-88 -52 -251 -158 -295 -193 -8 -6 -51 -40 -95 -74 -141 -110 -314 -273 -449
-422 -409 -456 -713 -1070 -822 -1662 -9 -49 -17 -97 -19 -105 -11 -59 -20
-136 -31 -255 -16 -165 -9 -608 10 -712 2 -10 7 -43 10 -74 4 -31 9 -67 11
-80 3 -13 7 -37 9 -54 20 -145 116 -479 192 -672 238 -601 668 -1161 1174
-1528 30 -22 57 -43 58 -47 2 -5 8 -8 13 -8 6 0 38 -19 72 -43 60 -42 138 -90
222 -138 52 -29 312 -159 320 -159 3 0 24 -9 48 -19 192 -87 581 -198 784
-225 22 -3 52 -8 65 -10 179 -41 744 -41 985 -2 21 4 52 8 68 10 204 26 555
127 809 233 122 52 338 160 394 198 20 14 40 25 45 25 4 0 13 5 20 10 7 6 64
44 127 86 239 158 471 360 660 573 36 41 70 79 75 85 25 26 146 188 197 261
298 430 524 1010 583 1500 4 28 8 61 11 75 19 113 26 541 11 715 -7 81 -23
206 -31 252 -2 10 -11 59 -21 108 -100 538 -352 1084 -694 1510 -148 184 -312
354 -461 479 -47 39 -87 74 -90 77 -13 16 -231 171 -299 214 -211 131 -415
236 -601 308 -107 42 -318 113 -360 122 -8 2 -42 10 -75 19 -71 18 -196 45
-245 52 -19 3 -60 9 -91 15 -31 5 -81 12 -110 15 -30 3 -67 8 -84 10 -33 6
-541 14 -547 10z m442 -1120 c30 -4 71 -9 90 -12 19 -2 53 -7 75 -9 149 -18
442 -108 625 -193 73 -34 237 -131 297 -176 91 -68 101 -77 175 -149 252 -246
375 -521 383 -857 3 -139 -22 -191 -100 -208 -22 -5 -220 -8 -440 -8 -383 1
-401 2 -435 21 -44 26 -67 67 -81 140 -32 173 -165 327 -355 411 -71 31 -185
63 -249 70 -27 3 -61 7 -75 9 -33 6 -209 7 -237 1 -11 -2 -43 -8 -70 -12 -85
-12 -219 -67 -292 -119 -8 -5 -49 -44 -90 -85 -113 -112 -179 -253 -198 -424
-9 -83 -8 -1547 2 -1616 25 -192 121 -347 283 -459 30 -21 193 -95 200 -91 1
1 26 -3 55 -9 247 -48 511 -16 682 84 135 80 256 252 279 399 4 21 8 41 10 45
3 3 7 48 11 98 l7 92 -358 3 c-405 3 -400 2 -445 82 -23 41 -23 44 -23 386 0
323 1 348 19 385 15 29 33 46 69 64 l50 25 799 0 c535 1 818 -3 854 -10 34 -7
64 -20 79 -35 50 -50 51 -71 49 -674 -2 -579 -3 -594 -37 -735 -35 -145 -79
-250 -160 -383 -216 -354 -633 -631 -1123 -747 -83 -19 -97 -22 -175 -35 -25
-4 -53 -9 -63 -11 -95 -17 -418 -24 -527 -10 -30 3 -77 9 -105 12 -187 21
-456 93 -638 173 -26 11 -51 21 -55 23 -4 1 -54 29 -112 61 -367 208 -593 489
-691 857 -43 163 -46 227 -43 1257 1 538 5 996 8 1018 3 22 11 63 16 90 6 28
12 59 14 71 18 92 110 308 174 408 146 227 381 431 647 560 179 87 405 163
565 190 19 3 49 8 65 11 72 12 94 15 165 21 41 3 76 7 77 8 6 5 302 -2 353 -8z"/>
</g>
</svg>
