<?xml version="1.0" standalone="no"?>
<!DOCTYPE svg PUBLIC "-//W3C//DTD SVG 20010904//EN"
 "http://www.w3.org/TR/2001/REC-SVG-20010904/DTD/svg10.dtd">
<svg version="1.0" xmlns="http://www.w3.org/2000/svg"
 width="700.000000pt" height="700.000000pt" viewBox="0 0 700.000000 700.000000"
 preserveAspectRatio="xMidYMid meet">
<metadata>
Created by potrace 1.14, written by Peter Selinger 2001-2017
</metadata>
<g transform="translate(0.000000,700.000000) scale(0.100000,-0.100000)"
fill="#000000" stroke="none">
<path d="M3475 5177 c-22 -13 -69 -39 -105 -59 -36 -19 -90 -49 -120 -65 -72
-40 -328 -181 -405 -223 -226 -124 -278 -152 -340 -185 -38 -21 -128 -70 -200
-110 -71 -40 -161 -89 -200 -110 -38 -21 -104 -57 -145 -80 -41 -23 -109 -60
-150 -82 -41 -22 -95 -52 -120 -65 -46 -26 -326 -180 -415 -228 -27 -15 -75
-41 -105 -57 -272 -150 -334 -183 -392 -211 -181 -88 -299 -306 -293 -538 3
-104 19 -172 63 -262 75 -157 214 -252 422 -291 30 -6 64 -12 75 -15 54 -12
797 -176 817 -180 13 -3 66 -14 118 -26 52 -12 106 -24 120 -26 14 -3 73 -16
132 -30 129 -29 158 -30 190 -4 46 36 41 122 -10 148 -14 8 -336 82 -412 95
-14 3 -43 10 -65 15 -22 6 -56 14 -75 17 -19 3 -51 10 -70 15 -27 7 -326 73
-435 96 -248 51 -469 105 -500 122 -115 59 -184 181 -186 331 -1 87 8 133 41
206 45 99 154 191 214 179 12 -2 53 -11 91 -19 39 -8 144 -31 235 -51 237 -50
400 -85 440 -94 60 -13 144 -31 170 -36 37 -7 298 -63 345 -74 32 -8 661 -143
765 -164 14 -3 79 -17 145 -31 66 -14 131 -28 145 -31 27 -6 337 -72 494 -106
l99 -22 51 28 c101 56 463 260 554 312 51 30 95 54 96 54 2 0 54 29 116 65 62
36 114 65 115 65 2 0 42 23 90 50 48 28 88 50 91 50 2 0 33 18 69 40 36 22 67
40 69 40 3 0 44 23 93 51 48 28 113 65 143 82 30 17 75 42 100 55 25 14 236
133 470 265 234 132 450 253 480 270 118 65 140 92 120 153 -17 52 -32 58
-275 109 -11 2 -81 17 -155 34 -74 16 -146 32 -160 35 -14 2 -63 13 -110 24
-67 16 -311 69 -400 87 -8 2 -35 8 -60 14 -25 6 -157 35 -295 65 -137 30 -362
80 -500 110 -137 30 -324 71 -415 91 -185 40 -365 81 -455 102 -112 26 -165
26 -210 0z"/>
<path d="M5160 2924 c-1477 -832 -1337 -754 -1353 -749 -6 3 -95 23 -197 46
-102 22 -192 42 -200 44 -97 23 -181 39 -209 38 -81 -1 -118 -119 -50 -161 16
-10 271 -72 394 -96 11 -3 74 -16 140 -31 161 -35 165 -36 205 -16 29 15 656
368 795 448 22 12 47 26 55 29 8 4 76 42 150 84 131 75 494 280 575 325 89 49
141 78 150 85 6 4 44 25 85 47 41 22 107 59 147 82 39 22 89 50 110 62 50 28
334 188 446 251 57 32 92 60 102 78 31 59 -13 130 -79 130 -22 0 -375 -194
-1266 -696z"/>
<path d="M2594 2883 c-9 -3 -11 -940 -2 -948 2 -3 50 24 107 59 l103 64 56
-61 c31 -34 71 -78 88 -97 18 -19 43 -47 56 -62 13 -16 27 -28 31 -28 4 0 7
225 7 499 0 436 -2 500 -15 505 -8 3 -34 8 -58 11 -23 3 -115 18 -203 33 -89
16 -165 27 -170 25z"/>
</g>
</svg>
