<?xml version="1.0" encoding="UTF-8" standalone="no"?>
<!-- Created with Inkscape (http://www.inkscape.org/) -->

<svg width="48.534683mm" height="14.137264mm" viewBox="0 0 48.534683 14.137264" version="1.1" id="svg5" xmlns="http://www.w3.org/2000/svg" xmlns:svg="http://www.w3.org/2000/svg">
  <defs id="defs2" />
  <g id="layer1" transform="translate(-3.6599388,-4.9809506)">
    <g id="g871" transform="matrix(0.99947976,0,0,0.99947976,123.61907,-56.372562)">
      <g id="text36" style="font-style:normal;font-variant:normal;font-weight:normal;font-stretch:normal;font-size:206.095px;line-height:1.25;font-family:'Calling Heart';-inkscape-font-specification:'Calling Heart';letter-spacing:0px;word-spacing:0px;fill:#ffffff;fill-opacity:1;stroke:none;stroke-width:5.15239" aria-label="Gaiman" transform="matrix(0.08730723,0,0,0.08730723,-25.95691,29.295561)">
        <path id="path142" style="font-style:normal;font-variant:normal;font-weight:normal;font-stretch:normal;font-family:'Calling Heart';-inkscape-font-specification:'Calling Heart';fill:#ffffff;stroke-width:5.15239" d="m -1007.0562,367.55131 h 0.5032 q 14.89362,0 25.25877,11.77401 5.93732,7.54744 5.93732,13.5854 0,17.6107 -11.27085,34.0138 -6.03795,7.74871 -8.85566,8.75504 -3.32088,1.61012 -7.74868,1.61012 -7.8494,0 -15.3968,-4.22657 -3.1196,-2.11328 -3.1196,-3.62277 v -0.20127 q 0.1006,-1.20759 7.1449,-7.7487 9.7614,-10.06326 11.774,-13.68603 3.32088,-4.42784 5.13226,-8.6544 2.61645,-6.23922 2.71708,-10.06326 -0.3019,-2.41518 -2.21391,-2.41518 h -1.2076 q -8.85563,0 -20.93153,13.18286 -8.1513,9.66073 -11.774,16.10121 -6.7424,10.56642 -12.5791,25.25878 -8.0506,20.62967 -8.0506,34.81887 0,12.88096 7.3462,17.0069 2.9183,1.40885 6.5411,1.40885 5.0316,0 10.2645,-2.31454 1.4088,-6.33986 4.3272,-12.98161 2.5158,-5.43415 8.4531,-15.79931 0.7045,-1.30822 0.7045,-1.91202 -0.2013,-0.40253 -0.3019,-0.40253 l -10.8684,2.91835 q -2.6164,0.40253 -4.4278,0.40253 -6.4405,0 -8.755,-4.931 -1.3082,-2.81771 -1.3082,-7.64807 0,-2.61645 3.0189,-3.52214 2.1133,0.10063 3.019,0.10063 8.2519,0 19.8246,-2.31455 11.2709,-2.21392 16.0006,-2.21392 h 1.10696 q 7.14491,0 9.25819,4.32721 0.20127,0.40253 0.3019,1.30822 0,2.21391 -4.6291,10.06325 -15.19555,28.78092 -15.19555,44.1777 v 1.71075 q 0,6.44049 3.2203,12.07591 v 0.10063 q -1.6101,1.81139 -8.0506,1.81139 h -0.6038 q -11.0696,0 -14.793,-6.03795 l -0.5032,-1.71076 q -9.1575,4.42784 -17.4094,4.42784 -22.2398,0 -29.7872,-25.56068 -2.4152,-9.05693 -2.4152,-19.62335 0,-24.25244 14.2898,-54.03968 4.2266,-8.3525 9.6607,-16.50374 3.8241,-6.03796 12.4785,-15.39678 17.51,-17.40944 33.9131,-17.40944 z" />
        <path id="path144" style="font-style:normal;font-variant:normal;font-weight:normal;font-stretch:normal;font-family:'Calling Heart';-inkscape-font-specification:'Calling Heart';fill:#ffffff;stroke-width:5.15239" d="m -942.75196,404.2822 h 1.20759 q 9.05693,0 18.11386,10.36515 1.40886,1.91202 3.52214,5.23289 3.62277,-11.06958 4.83037,-12.88096 1.50948,-2.51582 3.32087,-2.51582 h 0.90569 q 3.52214,0 10.56642,5.43416 2.61645,2.51582 2.61645,4.72973 v 0.6038 q 0,4.12593 -8.9563,24.55434 -8.6544,20.02588 -14.69235,38.03911 -1.40886,4.72973 -1.91202,7.24555 v 0.50316 q 0,0.50316 0.50316,0.80506 h 0.3019 q 3.52214,0 21.0322,-21.23347 19.52272,-25.25878 24.75561,-36.42899 2.31455,-3.7234 3.82404,-4.0253 h 0.6038 q 0.70443,0.50316 0.70443,1.50949 v 0.80506 q 0,6.23922 -17.30881,35.62392 -7.64807,12.57907 -16.50374,23.95055 -13.38413,16.60438 -20.32777,16.60438 h -0.70443 q -0.20127,0 -0.40253,0.10063 -0.10063,-0.10063 -0.3019,-0.10063 h -0.40253 q -7.54744,0 -12.9816,-6.94365 -3.01898,-4.52846 -3.01898,-8.9563 l 0.20127,-1.91202 q -3.32088,4.6291 -9.5601,10.86832 -7.64807,7.04428 -14.89361,7.04428 h -1.50949 q -11.67338,0 -15.79932,-10.96895 -1.20759,-4.22657 -1.20759,-8.75503 v -0.20127 q 0,-14.39045 11.17022,-43.77516 4.52846,-10.96895 10.96895,-20.42841 10.96895,-14.89362 21.3341,-14.89362 z m -18.71766,70.94595 q 0,3.32088 1.61013,4.42784 l 0.80506,0.20126 q 2.21391,0 7.34617,-5.63542 6.44049,-6.64175 11.06958,-13.2835 13.78667,-20.12651 13.78667,-32.70558 v -1.10696 q 0,-5.23289 -4.12594,-7.24555 -0.70443,-0.10063 -1.30822,-0.10063 h -0.40253 q -4.931,0 -12.07591,11.27085 -6.74238,11.67338 -12.17654,26.36573 -4.0253,12.17654 -4.0253,14.79299 -0.3019,0.80506 -0.50317,3.01897 z" />
        <path id="path146" style="font-style:normal;font-variant:normal;font-weight:normal;font-stretch:normal;font-family:'Calling Heart';-inkscape-font-specification:'Calling Heart';fill:#ffffff;stroke-width:5.15239" d="m -855.30226,376.10508 q 4.22656,0 11.67337,6.13859 2.01266,2.21391 2.01266,4.42783 v 0.20126 q 0,3.42151 -3.22025,10.76769 -1.61012,2.31455 -3.7234,2.31455 -2.11329,0 -9.96263,-4.02531 -4.93099,-3.52213 -4.93099,-6.54111 0,-0.80506 4.42783,-10.26452 1.20759,-3.01898 3.62277,-3.01898 z m -12.27718,27.97585 q 4.42784,0 11.67338,6.03796 2.11329,2.11328 2.11329,4.62909 0,4.02531 -8.9563,24.35308 -9.66073,22.64233 -14.89362,38.44164 -1.91202,6.74239 -1.91202,7.44681 0,1.10696 0.90569,1.10696 4.6291,-1.30822 19.42209,-19.42208 19.72398,-24.75561 25.86257,-37.63658 2.61644,-4.42783 4.42783,-4.72973 h 0.10063 q 1.20759,0 1.20759,2.11328 0,5.93732 -15.49741,32.60495 -26.76826,43.8758 -39.2467,43.8758 -9.35883,0 -14.08856,-8.85567 -2.01265,-4.12593 -2.01265,-8.55376 0,-5.53479 7.24554,-25.46004 10.66705,-32.70559 18.51639,-50.71881 2.21392,-4.22657 3.01898,-4.6291 0.80506,-0.6038 2.11328,-0.6038 z" />
        <path id="path148" style="font-style:normal;font-variant:normal;font-weight:normal;font-stretch:normal;font-family:'Calling Heart';-inkscape-font-specification:'Calling Heart';fill:#ffffff;stroke-width:5.15239" d="m -780.02911,403.77903 q 3.01898,0 8.85567,3.72341 5.53479,3.42151 5.53479,7.34618 0,3.4215 -5.43416,16.10121 20.42841,-27.1708 32.70558,-27.1708 4.0253,0 11.47211,5.63543 2.91835,2.51581 2.91835,5.23289 v 0.20127 q 0,3.92467 -7.74871,21.73663 -9.66073,22.44106 -14.89362,37.73721 -3.11961,9.5601 -3.11961,10.76769 0,1.00632 0.80506,1.00632 h 0.10063 q 3.62278,0 21.23348,-21.53537 8.55376,-10.86831 14.49108,-19.52271 6.03796,-8.85567 9.2582,-15.19552 2.91834,-5.43416 4.931,-5.43416 1.10695,0 1.10695,2.11328 -0.30189,7.64808 -19.72398,39.5486 -23.54802,36.83152 -34.71823,36.83152 h -1.50949 q -8.15124,0 -13.68603,-7.84934 -2.31455,-4.12594 -2.31455,-8.15124 0,-3.22024 3.22024,-11.27085 12.9816,-36.12709 14.28983,-40.05176 0.20126,-1.50948 0.20126,-2.31454 v -0.50317 q -0.10063,-1.50949 -1.30822,-1.50949 -5.33353,0.9057 -18.11386,18.11387 -8.85567,13.08223 -13.18287,22.23979 -4.22657,8.9563 -6.44048,16.30248 -2.51582,9.05693 -2.51582,11.87464 v 2.91834 q 0,0.20127 -0.20126,0.20127 h -1.71075 q -7.54745,0 -13.08224,-7.14491 -2.81771,-4.22657 -2.81771,-8.55377 v -0.40253 q 0,-3.11961 3.11961,-10.86832 12.9816,-36.12709 14.08856,-39.54859 0.40253,-1.10696 0.40253,-2.31455 v -0.50317 q -0.20127,-0.90569 -0.80506,-0.90569 -3.92467,1.00633 -16.20184,16.90627 -13.48477,18.51639 -20.32778,30.99483 -6.94365,12.6797 -6.94365,19.32145 v 1.30823 q 0,0.30189 0.10063,1.81138 -0.20126,0.10063 -0.30189,0.10063 -11.47212,0 -15.59805,-11.97527 -0.70443,-2.91834 -0.70443,-5.33353 v -0.40253 q 0,-5.13226 6.54112,-23.44738 10.76768,-32.60495 18.51639,-50.92008 2.91834,-6.64175 4.83036,-6.64175 0.50316,-0.10063 0.90569,-0.10063 4.02531,0 10.96895,5.33352 2.71708,2.51582 2.71708,4.931 v 0.60379 q 0,4.22657 -9.15756,24.85625 v 0.3019 h 0.10063 q 6.03796,-9.45947 16.40311,-21.63601 13.68603,-14.89362 22.74296,-14.89362 z" />
        <path id="path150" style="font-style:normal;font-variant:normal;font-weight:normal;font-stretch:normal;font-family:'Calling Heart';-inkscape-font-specification:'Calling Heart';fill:#ffffff;stroke-width:5.15239" d="m -678.69211,404.2822 h 1.20759 q 9.05693,0 18.11386,10.36515 1.40885,1.91202 3.52214,5.23289 3.62277,-11.06958 4.83036,-12.88096 1.50949,-2.51582 3.32088,-2.51582 h 0.90569 q 3.52214,0 10.56642,5.43416 2.61644,2.51582 2.61644,4.72973 v 0.6038 q 0,4.12593 -8.95629,24.55434 -8.6544,20.02588 -14.69236,38.03911 -1.40885,4.72973 -1.91202,7.24555 v 0.50316 q 0,0.50316 0.50317,0.80506 h 0.30189 q 3.52214,0 21.03221,-21.23347 19.52272,-25.25878 24.75561,-36.42899 2.31455,-3.7234 3.82404,-4.0253 h 0.60379 q 0.70443,0.50316 0.70443,1.50949 v 0.80506 q 0,6.23922 -17.3088,35.62392 -7.64808,12.57907 -16.50374,23.95055 -13.38413,16.60438 -20.32778,16.60438 h -0.70443 q -0.20126,0 -0.40253,0.10063 -0.10063,-0.10063 -0.30189,-0.10063 h -0.40253 q -7.54745,0 -12.98161,-6.94365 -3.01897,-4.52846 -3.01897,-8.9563 l 0.20126,-1.91202 q -3.32087,4.6291 -9.56009,10.86832 -7.64808,7.04428 -14.89362,7.04428 h -1.50949 q -11.67338,0 -15.79931,-10.96895 -1.20759,-4.22657 -1.20759,-8.75503 v -0.20127 q 0,-14.39045 11.17021,-43.77516 4.52847,-10.96895 10.96895,-20.42841 10.96895,-14.89362 21.33411,-14.89362 z m -18.71766,70.94595 q 0,3.32088 1.61012,4.42784 l 0.80506,0.20126 q 2.21392,0 7.34618,-5.63542 6.44048,-6.64175 11.06958,-13.2835 13.78666,-20.12651 13.78666,-32.70558 v -1.10696 q 0,-5.23289 -4.12593,-7.24555 -0.70443,-0.10063 -1.30823,-0.10063 h -0.40253 q -4.93099,0 -12.07591,11.27085 -6.74238,11.67338 -12.17654,26.36573 -4.0253,12.17654 -4.0253,14.79299 -0.3019,0.80506 -0.50316,3.01897 z" />
        <path id="path152" style="font-style:normal;font-variant:normal;font-weight:normal;font-stretch:normal;font-family:'Calling Heart';-inkscape-font-specification:'Calling Heart';fill:#ffffff;stroke-width:5.15239" d="m -561.85771,403.77903 q 4.12594,0 11.67338,5.63543 2.81771,2.61644 2.81771,5.13226 v 0.40253 q 0,3.62277 -6.13859,17.71133 -11.47211,26.46636 -17.10753,43.47327 -2.51582,8.0506 -2.51582,8.9563 0.3019,1.00632 0.6038,1.00632 h 0.3019 q 3.82403,-0.20126 21.3341,-21.636 18.21449,-23.34675 23.54802,-34.3157 3.01898,-5.73606 5.03163,-5.73606 1.10696,0.3019 1.10696,1.81139 v 0.40253 q 0,6.94364 -19.82462,39.54859 -23.44739,36.73089 -34.6176,36.73089 h -1.50949 q -7.64807,0 -13.08223,-7.04428 -2.91835,-4.3272 -2.91835,-8.9563 0,-2.91834 2.81771,-10.06325 13.68603,-37.83785 14.49109,-40.65556 0.3019,-1.30822 0.3019,-2.31455 0,-1.00632 -0.70443,-1.20759 -2.91834,0 -14.89362,15.09488 -14.99425,20.12652 -21.83726,33.20875 -5.73606,10.96895 -5.73606,12.6797 -1.00632,2.51582 -1.00632,6.13859 v 3.11961 q 0,0.20126 -0.3019,0.20126 -11.27085,0 -15.59805,-11.77401 -0.70443,-3.4215 -0.70443,-5.53479 0,-5.43415 6.33985,-23.14549 11.97528,-36.52962 19.72399,-53.83842 2.21391,-4.42783 3.92467,-4.42783 0.40253,-0.10063 0.90569,-0.10063 4.42783,0 11.67338,6.13858 2.01265,2.21392 2.01265,4.6291 0,3.92467 -9.2582,25.25878 24.95688,-36.52963 39.14607,-36.52963 z" />
      </g>
      <g aria-label="_" style="font-style:normal;font-variant:normal;font-weight:normal;font-stretch:normal;font-size:206.095px;line-height:1.25;font-family:'Calling Heart';-inkscape-font-specification:'Calling Heart';font-variant-ligatures:normal;font-variant-position:normal;font-variant-caps:normal;font-variant-numeric:normal;font-variant-alternates:normal;font-feature-settings:normal;text-indent:0;text-align:start;text-decoration:none;text-decoration-line:none;text-decoration-style:solid;text-decoration-color:#000000;letter-spacing:0px;word-spacing:0px;text-transform:none;writing-mode:lr-tb;direction:ltr;text-orientation:mixed;dominant-baseline:auto;baseline-shift:baseline;text-anchor:start;white-space:normal;shape-padding:0;vector-effect:none;fill:#ffffff;fill-opacity:1;stroke:none;stroke-width:5.15239;stroke-linecap:butt;stroke-linejoin:miter;stroke-miterlimit:4;stroke-dasharray:none;stroke-dashoffset:0;stroke-opacity:1" id="text130" transform="matrix(0.08730723,0,0,0.08730723,-33.183922,28.47056)">
        <path d="m -911.54594,528.34337 c 8.20399,0.3447 16.47882,0.60085 24.82449,0.76844 3.76044,0.0755 380.40877,0.13305 384.19798,0.17261 4.16833,0.0435 8.35406,0.0653 12.55721,0.0653 h 4.3272 c 3.82403,0 7.11136,-0.0671 9.86199,-0.20126 0.60379,0.60379 0.90569,1.50948 0.90569,2.71707 0,3.22025 -2.31455,5.29999 -6.94365,6.23922 -0.46601,0.34951 -7.17835,0.62315 -20.13703,0.82092 -1.966,0.03 -376.9493,0.0583 -379.20285,0.0848 -2.14343,0 -4.19021,-0.0121 -6.14035,-0.0364 -13.24844,-0.16508 -22.03643,-0.8909 -26.36397,-2.17747 -1.07341,-0.40253 -1.61012,-1.03987 -1.61012,-1.91202 0,-2.8848 1.03987,-5.03163 3.11961,-6.44048 z" style="font-style:normal;font-variant:normal;font-weight:normal;font-stretch:normal;font-size:206.095px;line-height:1.25;font-family:'Calling Heart';-inkscape-font-specification:'Calling Heart';font-variant-ligatures:normal;font-variant-position:normal;font-variant-caps:normal;font-variant-numeric:normal;font-variant-alternates:normal;font-feature-settings:normal;text-indent:0;text-align:start;text-decoration:none;text-decoration-line:none;text-decoration-style:solid;text-decoration-color:#000000;letter-spacing:0px;word-spacing:0px;text-transform:none;writing-mode:lr-tb;direction:ltr;text-orientation:mixed;dominant-baseline:auto;text-anchor:start;white-space:normal;shape-padding:0;vector-effect:none;fill:#ffffff;fill-opacity:1;stroke:none;stroke-width:5.15239;stroke-linecap:butt;stroke-linejoin:miter;stroke-miterlimit:4;stroke-dasharray:none;stroke-dashoffset:0;stroke-opacity:1" id="path132" />
      </g>
    </g>
  </g>
</svg>
